<svg width="231" height="33" viewBox="0 0 231 33" fill="none" xmlns="http://www.w3.org/2000/svg">
<g id="Element">
<path id="Vector" d="M216.138 17.1226C215.824 17.1493 215.507 17.1677 215.199 17.2077C214.999 17.2328 214.914 17.1594 214.78 17.121C214.736 17.1076 214.688 17.0809 214.647 17.0843C214.336 17.111 214.025 17.141 213.714 17.171C213.619 17.2361 213.559 17.3229 213.413 17.3546C213.27 17.3846 213.102 17.3846 212.943 17.3996C212.734 17.418 212.525 17.4364 212.315 17.453C212.21 17.4614 212.125 17.4931 212.09 17.5532C212.084 17.5632 212.153 17.5882 212.191 17.6032C212.318 17.6533 212.442 17.71 212.582 17.7484C212.715 17.7851 212.88 17.725 213.023 17.7717C213.343 17.8768 213.346 17.8752 213.591 17.8552C213.8 17.8368 214.009 17.8168 214.219 17.8034C214.26 17.8001 214.308 17.8251 214.352 17.8385C214.485 17.8752 214.571 17.9586 214.768 17.9269C214.917 17.9019 215.082 17.8969 215.237 17.8835C215.367 17.9319 215.488 17.987 215.628 18.0254C215.758 18.0621 215.796 18.0904 215.726 18.1388C215.662 18.1839 215.574 18.2022 215.456 18.2056C215.352 18.2072 215.247 18.2222 215.142 18.2306C215.088 18.2356 215.037 18.2389 214.987 18.2439C214.787 18.2623 214.787 18.2623 214.422 18.1555C214.279 18.1138 214.117 18.1722 213.981 18.1321C213.889 18.1054 213.81 18.0654 213.721 18.037C213.683 18.0254 213.622 18.0237 213.575 18.027C213.416 18.0387 213.257 18.047 213.105 18.0687C212.997 18.0838 212.934 18.1305 212.947 18.1772C212.95 18.1956 213.026 18.2223 213.07 18.2239C213.172 18.2273 213.28 18.2039 213.378 18.2156C213.473 18.2273 213.572 18.2606 213.641 18.2973C213.784 18.3741 213.946 18.3057 214.082 18.3257C214.225 18.3474 214.343 18.4141 214.479 18.4542C214.514 18.4642 214.581 18.4475 214.634 18.4425C214.79 18.4308 214.945 18.4208 215.101 18.4091C215.231 18.4575 215.371 18.5009 215.488 18.556C215.701 18.6561 215.929 18.6945 216.205 18.6461C216.361 18.6194 216.513 18.6294 216.637 18.6945C216.763 18.7612 216.909 18.7545 217.071 18.7412C217.22 18.7278 217.373 18.6911 217.525 18.7378C217.855 18.8413 217.858 18.8463 218.248 18.8063C218.366 18.7946 218.455 18.7912 218.543 18.8296C218.626 18.8647 218.715 18.8947 218.8 18.9281C218.956 18.9164 219.114 18.9047 219.27 18.8914C219.47 18.873 219.581 18.8964 219.628 18.9898C219.657 19.0465 219.67 19.0983 219.74 19.1366C219.822 19.1834 219.911 19.1817 220.031 19.1683C220.146 19.1567 220.228 19.1383 220.276 19.0782C220.295 19.0532 220.333 19.0298 220.368 19.0098C220.396 18.9948 220.441 18.9715 220.466 18.9748C220.514 18.9815 220.577 18.9998 220.593 19.0215C220.748 19.2234 220.748 19.2251 220.907 19.2835C221.082 19.3485 221.263 19.4069 221.421 19.4804C221.564 19.5454 221.707 19.5171 221.862 19.5171C221.98 19.5171 222.056 19.5605 222.046 19.6039C222.04 19.6289 221.995 19.6656 221.957 19.6689C221.646 19.7023 221.332 19.7306 221.018 19.754C220.98 19.7573 220.933 19.7273 220.888 19.7123C220.799 19.6823 220.72 19.6355 220.625 19.6255C220.53 19.6155 220.419 19.6405 220.314 19.6489C220.209 19.6572 220.098 19.6789 220.003 19.6656C219.908 19.6522 219.832 19.6038 219.743 19.5721C219.701 19.5571 219.644 19.5354 219.609 19.5404C219.378 19.5805 219.207 19.5254 219.042 19.452C219.007 19.437 218.946 19.427 218.902 19.4303C218.534 19.4587 218.169 19.492 217.801 19.5237C217.652 19.5371 217.531 19.4787 217.5 19.3802C217.484 19.3252 217.452 19.2701 217.452 19.2151C217.452 19.1149 217.277 19.0599 217.151 19.0716C216.941 19.0882 216.729 19.1016 216.522 19.1266C216.354 19.1466 216.211 19.1266 216.097 19.0666C215.964 18.9981 215.812 19.0115 215.659 19.0298C215.545 19.0432 215.513 19.0983 215.52 19.2367C215.526 19.3485 215.472 19.3836 215.266 19.4019C215.006 19.4253 214.742 19.4487 214.479 19.467C214.438 19.4704 214.39 19.442 214.349 19.427C214.26 19.3969 214.181 19.3485 214.086 19.3385C213.99 19.3269 213.879 19.3519 213.775 19.3619C213.67 19.3702 213.559 19.3936 213.464 19.3819C213.369 19.3702 213.289 19.3202 213.204 19.2885C213.162 19.2735 213.112 19.2518 213.07 19.2551C212.861 19.2685 212.651 19.2885 212.442 19.3068C212.207 19.3269 212.207 19.3269 211.874 19.2234C211.722 19.1767 211.57 19.2134 211.42 19.2267C211.262 19.2401 211.113 19.2468 210.989 19.18C210.906 19.1366 210.814 19.1099 210.716 19.1183C210.453 19.1383 210.193 19.1633 209.929 19.1834C209.885 19.1867 209.825 19.1784 209.79 19.1633C209.621 19.0933 209.456 19.0382 209.222 19.0732C209.019 19.1033 208.8 19.1049 208.597 19.1333C208.486 19.1483 208.435 19.2017 208.457 19.2434C208.47 19.2651 208.536 19.2902 208.581 19.2902C208.682 19.2918 208.793 19.2668 208.889 19.2768C209.085 19.2968 209.184 19.437 209.441 19.3986C209.593 19.3752 209.752 19.3669 209.91 19.3602C209.951 19.3586 209.996 19.3903 210.04 19.4069C210.167 19.452 210.278 19.5104 210.462 19.4804C210.615 19.457 210.776 19.4503 210.932 19.437C211.179 19.4153 211.179 19.417 211.5 19.5188C211.652 19.5671 211.804 19.5288 211.953 19.5171C212.064 19.5087 212.169 19.4921 212.258 19.5154C212.394 19.5505 212.493 19.6305 212.661 19.6255C212.82 19.6205 212.975 19.5972 213.134 19.5888C213.232 19.5838 213.324 19.6105 213.403 19.6556C213.486 19.7006 213.575 19.7206 213.683 19.7106C213.838 19.6973 213.997 19.6806 214.155 19.6722C214.2 19.6706 214.251 19.6856 214.292 19.699C214.381 19.729 214.466 19.764 214.552 19.7957C214.707 19.7857 214.866 19.7824 215.018 19.7624C215.136 19.7473 215.218 19.754 215.313 19.7874C215.434 19.8324 215.532 19.9125 215.729 19.8742C215.827 19.8558 215.942 19.8608 216.04 19.8441C216.161 19.8224 216.243 19.8308 216.329 19.8808C216.491 19.9759 216.694 19.9776 216.903 19.9409C217.132 19.9008 217.303 19.9476 217.474 20.021C217.655 20.0978 217.655 20.0961 217.795 20.2813C217.836 20.3347 217.953 20.3597 218.052 20.3497C218.217 20.333 218.359 20.3414 218.48 20.4048C218.607 20.4732 218.759 20.4648 218.915 20.4465C219.121 20.4214 219.327 20.3998 219.495 20.4965C219.578 20.5433 219.667 20.5549 219.778 20.5432C220.092 20.5132 220.409 20.4949 220.717 20.4582C220.904 20.4348 221.012 20.4882 221.139 20.5332C221.31 20.595 221.497 20.65 221.497 20.7819C221.497 20.8036 221.542 20.8286 221.58 20.8453C221.662 20.8803 221.751 20.9103 221.837 20.9437C221.964 20.9938 222.087 21.0355 222.262 21.0088C222.414 20.9871 222.576 20.9804 222.731 20.9654C222.887 20.9504 223.03 20.942 223.169 21.0054C223.331 21.0772 223.502 21.1456 223.687 21.199C223.817 21.2374 223.988 21.1723 224.128 21.224C224.213 21.2557 224.296 21.2924 224.388 21.3191C224.426 21.3308 224.486 21.3225 224.537 21.3191C224.642 21.3125 224.749 21.3075 224.851 21.2908C224.968 21.2724 225.057 21.2758 225.146 21.3142C225.229 21.3492 225.311 21.3976 225.406 21.4076C225.549 21.4226 225.708 21.3559 225.85 21.4326C225.923 21.471 226.015 21.5077 226.111 21.5194C226.206 21.5311 226.317 21.506 226.418 21.5077C226.463 21.5077 226.517 21.5344 226.542 21.5561C226.558 21.5678 226.536 21.5995 226.514 21.6162C226.485 21.6362 226.444 21.6629 226.402 21.6662C226.088 21.6963 225.774 21.7213 225.46 21.7497C225.273 21.7663 225.273 21.7663 224.895 21.6612C224.807 21.6362 224.708 21.6412 224.597 21.6529C224.448 21.6679 224.296 21.6963 224.14 21.6662C223.937 21.5528 223.687 21.5427 223.42 21.5861C223.309 21.6045 223.207 21.6045 223.125 21.5728C222.95 21.5094 222.766 21.451 222.611 21.3759C222.49 21.3175 222.433 21.3125 222.383 21.3926C222.367 21.4176 222.351 21.4443 222.354 21.4676C222.373 21.5511 222.408 21.6328 222.427 21.7163C222.433 21.7396 222.408 21.7663 222.392 21.7914C222.341 21.8614 222.275 21.8564 222.164 21.798C222.053 21.7396 221.919 21.7013 221.742 21.728C221.589 21.7513 221.424 21.748 221.272 21.773C221.037 21.8097 220.872 21.7563 220.704 21.6846C220.669 21.6696 220.609 21.6612 220.565 21.6646C220.092 21.7029 219.622 21.7463 219.149 21.7847C219.048 21.793 218.956 21.768 218.877 21.7229C218.794 21.6779 218.702 21.6545 218.6 21.6629C218.182 21.6979 217.763 21.7296 217.344 21.773C217.173 21.7914 217.036 21.7697 216.919 21.7113C216.83 21.6679 216.748 21.6545 216.637 21.6595C216.516 21.6645 216.43 21.6812 216.37 21.7296C216.313 21.7763 216.354 21.8047 216.481 21.8414C216.617 21.8815 216.744 21.9332 216.874 21.9799C216.979 21.9732 217.084 21.9599 217.185 21.9615C217.23 21.9615 217.271 21.9916 217.316 22.0083C217.442 22.0567 217.56 22.1051 217.741 22.0784C217.893 22.055 218.055 22.05 218.21 22.035C218.426 22.0166 218.426 22.0166 218.775 22.1217C218.864 22.1484 218.959 22.1468 219.073 22.1317C219.172 22.1201 219.273 22.1434 219.343 22.1935C219.371 22.2135 219.362 22.2469 219.302 22.357C219.302 22.4388 219.368 22.4021 219.39 22.3487C219.425 22.2719 219.359 22.2469 219.232 22.2886C219.143 22.3186 219.099 22.362 219.121 22.3971C219.134 22.4154 219.194 22.4388 219.302 22.357C219.581 22.2569 219.793 22.2452 219.997 22.2185C220.117 22.2035 220.193 22.2102 220.288 22.2535C220.403 22.3053 220.517 22.3604 220.704 22.3337C220.907 22.3036 221.123 22.3003 221.329 22.2752C221.519 22.2519 221.618 22.3253 221.738 22.3687C221.884 22.4204 222.046 22.362 222.179 22.3921C222.319 22.4221 222.417 22.4955 222.579 22.5088C222.814 22.4638 222.963 22.5472 223.141 22.6023C223.28 22.644 223.445 22.6073 223.594 22.5889C223.763 22.5689 223.902 22.5873 224.02 22.6474C224.153 22.7158 224.302 22.7007 224.454 22.6857C224.81 22.6524 224.822 22.6473 225.029 22.7391C225.178 22.8059 225.321 22.7758 225.47 22.7675C225.6 22.8125 225.727 22.8609 225.863 22.901C225.898 22.911 225.965 22.8943 226.019 22.8893C226.174 22.8759 226.333 22.8626 226.488 22.8492C226.593 22.8409 226.704 22.8159 226.799 22.8259C226.894 22.8376 226.974 22.886 227.059 22.9177C227.145 22.9494 227.234 22.9811 227.316 23.0144C227.443 23.0645 227.564 23.1062 227.741 23.0812C227.894 23.0595 228.052 23.0528 228.211 23.0378C228.411 23.0194 228.404 23.0244 228.776 23.1246C228.976 23.1796 229.182 23.1129 229.385 23.1062C229.486 23.1029 229.585 23.1212 229.655 23.1696C229.683 23.1896 229.674 23.223 229.683 23.2514C229.16 23.2964 228.633 23.3348 228.116 23.3899C227.916 23.4116 227.811 23.3515 227.703 23.3014C227.526 23.2213 227.291 23.3381 227.123 23.2347C227.021 23.1729 226.875 23.1379 226.701 23.1679C226.599 23.1846 226.491 23.183 226.387 23.198C226.12 23.2347 225.876 23.2364 225.663 23.1212C225.59 23.0812 225.486 23.0595 225.409 23.0211C225.321 22.9794 225.235 22.956 225.13 22.9644C224.657 23.0044 224.188 23.0445 223.718 23.0878C223.677 23.0912 223.636 23.1162 223.601 23.1346C223.512 23.1813 223.541 23.218 223.683 23.248C223.731 23.258 223.769 23.2797 223.813 23.2964C223.899 23.3281 223.978 23.3782 224.074 23.3899C224.169 23.4015 224.28 23.3782 224.385 23.3698C224.489 23.3615 224.6 23.3365 224.696 23.3465C224.791 23.3582 224.87 23.4066 224.959 23.4366C225 23.4516 225.051 23.4766 225.092 23.475C225.302 23.465 225.508 23.4466 225.717 23.4316C225.847 23.4766 225.958 23.5417 226.114 23.5567C226.212 23.5667 226.317 23.5484 226.418 23.5517C226.463 23.5534 226.52 23.5784 226.542 23.6001C226.555 23.6135 226.514 23.6468 226.482 23.6635C226.361 23.7269 226.196 23.7152 226.047 23.7353C225.885 23.7569 225.739 23.7503 225.616 23.6852C225.533 23.6418 225.441 23.6185 225.34 23.6268C225.076 23.6485 224.816 23.6735 224.553 23.6919C224.508 23.6952 224.454 23.6802 224.413 23.6685C224.08 23.5667 224.08 23.5634 223.845 23.5851C223.499 23.6168 223.499 23.6168 223.268 23.5283C223.223 23.5117 223.176 23.48 223.138 23.4816C222.77 23.5083 222.405 23.535 222.04 23.5734C221.919 23.5851 221.837 23.5851 221.748 23.5417C221.672 23.505 221.583 23.4633 221.488 23.4533C221.389 23.4433 221.282 23.4683 221.177 23.4766C221.072 23.485 220.961 23.5067 220.869 23.4933C220.774 23.48 220.691 23.4333 220.609 23.3999C220.523 23.3648 220.431 23.3665 220.314 23.3798C219.952 23.4182 219.949 23.4132 219.59 23.3098C219.549 23.2981 219.495 23.2847 219.451 23.2881C219.187 23.3081 218.927 23.3331 218.664 23.3532C218.562 23.3615 218.464 23.3398 218.394 23.2914C218.366 23.2714 218.375 23.238 218.356 23.1729C218.334 23.1579 218.359 23.1846 218.366 23.2097C218.413 23.2063 218.47 23.2097 218.505 23.1963C218.594 23.1646 218.639 23.1229 218.616 23.0878C218.604 23.0695 218.543 23.0461 218.505 23.0461C218.436 23.0461 218.375 23.0828 218.356 23.1729C218.156 23.228 217.944 23.2397 217.737 23.2664C217.617 23.2831 217.541 23.2747 217.446 23.2314C217.331 23.178 217.214 23.1262 217.027 23.1529C216.824 23.183 216.608 23.188 216.399 23.2113C216.157 23.238 216.053 23.0878 215.85 23.0912C215.64 23.0945 215.431 23.1229 215.221 23.1429C215.037 23.1596 215.037 23.1596 214.657 23.0511C214.517 23.0111 214.352 23.0695 214.216 23.0278C214.124 23.0011 214.044 22.961 213.955 22.9327C213.917 22.921 213.857 22.921 213.81 22.9243C213.546 22.9443 213.28 22.9577 213.026 22.9944C212.737 23.0378 212.518 22.9911 212.312 22.8926C212.052 22.911 211.788 22.921 211.531 22.9527C211.344 22.9761 211.236 22.921 211.109 22.8759C211.065 22.8609 211.027 22.8359 210.979 22.8292C210.932 22.8225 210.875 22.8359 210.824 22.8409C210.614 22.8592 210.399 22.8676 210.196 22.8976C209.945 22.936 209.85 22.7992 209.656 22.7825C209.526 22.8643 209.456 22.976 209.199 22.9844C208.99 22.9911 208.781 23.0178 208.571 23.0361C208.467 23.0445 208.362 23.0545 208.257 23.0628C208.089 23.0778 208.01 23.1429 208.045 23.243C208.064 23.2981 208.079 23.3532 208.095 23.4082C208.127 23.5067 208.048 23.5901 207.914 23.6018C207.546 23.6335 207.182 23.6668 206.813 23.6952C206.715 23.7036 206.62 23.6752 206.541 23.6301C206.458 23.5851 206.366 23.5651 206.265 23.5734C205.897 23.6051 205.532 23.6385 205.164 23.6669C205.122 23.6702 205.068 23.6535 205.027 23.6402C204.938 23.6101 204.853 23.5751 204.767 23.5434C204.558 23.5584 204.351 23.5684 204.145 23.5884C203.812 23.6185 203.812 23.6201 203.568 23.5283C203.523 23.5117 203.479 23.48 203.438 23.4816C203.279 23.4883 203.124 23.505 202.965 23.52C202.498 23.5634 202.498 23.5634 202.362 23.5133C202.238 23.4666 202.127 23.4099 201.94 23.4366C201.737 23.4666 201.521 23.4766 201.312 23.4933C201.156 23.505 201.001 23.5184 200.845 23.5217C200.804 23.5234 200.76 23.4916 200.715 23.475C200.588 23.4232 200.465 23.3815 200.29 23.4099C200.189 23.4266 200.081 23.4299 199.976 23.4383C199.703 23.4616 199.703 23.4616 199.256 23.3615C199.211 23.3515 199.157 23.3398 199.113 23.3448C198.745 23.3748 198.38 23.4082 198.012 23.4366C197.968 23.4399 197.914 23.4299 197.869 23.4216C197.368 23.3248 197.368 23.3248 196.835 23.3715C196.632 23.3882 196.626 23.3949 196.413 23.3064C196.318 23.2681 196.239 23.2497 196.127 23.2614C195.709 23.3014 195.287 23.3281 194.871 23.3749C194.684 23.3949 194.576 23.3448 194.449 23.2998C194.405 23.2847 194.357 23.2514 194.319 23.253C193.9 23.2848 193.481 23.3231 193.062 23.3548C193.024 23.3582 192.977 23.3248 192.932 23.3098C192.847 23.2797 192.764 23.2347 192.669 23.2247C192.571 23.2147 192.463 23.2397 192.355 23.248C192.092 23.2697 192.092 23.2681 191.787 23.1696C191.746 23.1563 191.692 23.1379 191.651 23.1412C191.232 23.1746 190.81 23.203 190.394 23.2514C190.156 23.2781 189.994 23.2297 189.826 23.1596C189.791 23.1446 189.731 23.1379 189.687 23.1412C189.214 23.1796 188.744 23.223 188.272 23.2614C188.173 23.2697 188.078 23.2414 187.999 23.198C187.872 23.1296 187.723 23.1379 187.564 23.1529C187.199 23.188 187.196 23.1863 186.98 23.1062C186.936 23.0895 186.898 23.0678 186.85 23.0595C186.806 23.0511 186.749 23.0561 186.701 23.0595C186.492 23.0762 186.282 23.0945 186.073 23.1129C185.863 23.1312 185.651 23.1413 185.445 23.1696C185.191 23.2047 185.07 23.0962 184.892 23.0461C184.632 23.0678 184.366 23.0812 184.109 23.1162C183.912 23.1429 183.82 23.0695 183.69 23.0311C183.646 23.0178 183.598 22.9894 183.557 22.9927C183.084 23.0294 182.611 23.0695 182.142 23.1145C182.027 23.1246 181.951 23.1112 181.856 23.0712C181.644 22.9811 181.634 22.9844 181.279 23.0178C181.123 23.0328 180.974 23.0461 180.841 22.9777C180.723 22.916 180.581 22.901 180.412 22.921C180.206 22.946 179.994 22.9594 179.784 22.9761C179.575 22.9944 179.365 23.0194 179.156 23.0278C178.988 23.0361 178.886 22.9577 178.753 22.9177C178.712 22.906 178.655 22.9043 178.607 22.9076C178.398 22.9227 178.182 22.9343 177.979 22.9627C177.731 22.9977 177.595 22.906 177.421 22.8526C177.382 22.8409 177.319 22.8476 177.271 22.8526C176.903 22.8826 176.538 22.916 176.17 22.9477C176.04 22.9026 175.907 22.8593 175.777 22.8142C175.568 22.8309 175.358 22.8492 175.149 22.8659C174.99 22.8793 174.828 22.8843 174.679 22.9093C174.486 22.9427 174.39 22.8643 174.26 22.8259C174.216 22.8125 174.168 22.7842 174.127 22.7875C173.864 22.8059 173.6 22.8259 173.34 22.8543C173.093 22.8826 172.994 22.7324 172.791 22.7341C172.582 22.7358 172.366 22.7575 172.163 22.7875C171.928 22.8225 171.763 22.7691 171.595 22.6974C171.56 22.6824 171.5 22.674 171.456 22.6774C171.192 22.6974 170.932 22.7224 170.669 22.7425C170.624 22.7458 170.57 22.7375 170.526 22.7274C170.025 22.629 170.025 22.6273 169.806 22.6474C169.65 22.6607 169.492 22.6774 169.333 22.6857C169.289 22.6891 169.235 22.674 169.193 22.6607C168.863 22.5589 168.863 22.5572 168.625 22.5773C168.416 22.5956 168.207 22.614 167.997 22.6323C167.867 22.5873 167.734 22.5439 167.604 22.4988C167.344 22.5205 167.077 22.5372 166.82 22.5672C166.7 22.5806 166.62 22.5756 166.528 22.5339C166.414 22.4838 166.3 22.4254 166.109 22.4538C165.906 22.4838 165.691 22.4872 165.484 22.5122C165.237 22.5422 165.135 22.3904 164.935 22.3921C164.726 22.3937 164.51 22.4154 164.307 22.4454C164.072 22.4805 163.907 22.4271 163.739 22.3553C163.704 22.3403 163.644 22.332 163.6 22.3353C163.022 22.3837 162.448 22.4321 161.871 22.4838C161.515 22.5155 161.515 22.5172 160.839 22.4254C160.792 22.4187 160.741 22.4121 160.693 22.4154C160.484 22.4304 160.268 22.4421 160.065 22.4705C159.818 22.5055 159.681 22.4154 159.507 22.3603C159.469 22.3487 159.408 22.3553 159.358 22.3587C159.199 22.3703 159.044 22.3854 158.885 22.3987C158.675 22.4171 158.466 22.4354 158.257 22.4538C158.127 22.4104 157.993 22.3653 157.863 22.322C157.603 22.3437 157.337 22.3553 157.08 22.3904C156.883 22.4171 156.791 22.347 156.661 22.307C156.616 22.2936 156.569 22.2652 156.528 22.2669C156.055 22.3036 155.582 22.342 155.112 22.3887C154.919 22.4087 154.83 22.3336 154.7 22.2953C154.656 22.2836 154.605 22.2619 154.564 22.2652C154.249 22.2886 153.935 22.317 153.621 22.3453C153.444 22.362 153.444 22.362 153.056 22.2586C153.012 22.2469 152.961 22.2352 152.917 22.2385C151.921 22.322 150.927 22.4104 149.931 22.4938C149.83 22.5022 149.738 22.4771 149.658 22.4321C149.576 22.387 149.484 22.3637 149.382 22.372C148.963 22.4071 148.542 22.4388 148.126 22.4822C147.955 22.5005 147.818 22.4788 147.701 22.4204C147.612 22.377 147.529 22.3603 147.418 22.3704C147.209 22.3904 147 22.4071 146.79 22.4254C146.581 22.4438 146.371 22.4621 146.162 22.4805C145.953 22.4988 145.74 22.5089 145.534 22.5372C145.28 22.5723 145.156 22.4688 144.982 22.4171C144.668 22.4421 144.353 22.4671 144.042 22.4938C143.624 22.5289 143.205 22.5673 142.786 22.6006C142.748 22.604 142.7 22.5739 142.656 22.5589C142.526 22.5172 142.431 22.4588 142.237 22.4772C141.298 22.5656 140.352 22.6407 139.41 22.7274C139.213 22.7458 139.128 22.674 138.995 22.6357C138.95 22.624 138.899 22.6006 138.858 22.604C138.335 22.6457 137.811 22.6924 137.288 22.7374C137.075 22.7558 137.075 22.7558 136.72 22.6523C136.678 22.6407 136.624 22.6256 136.58 22.629C135.898 22.6857 135.219 22.7458 134.537 22.8042C134.435 22.8125 134.343 22.7892 134.261 22.7441C134.181 22.6991 134.086 22.674 133.988 22.6824C133.36 22.7358 132.728 22.7875 132.103 22.8459C131.935 22.8626 131.795 22.8476 131.675 22.7875C131.589 22.7441 131.504 22.7258 131.396 22.7358C130.453 22.8175 129.511 22.896 128.569 22.9827C128.388 22.9994 128.261 22.9677 128.147 22.9127C128.055 22.8693 127.975 22.8609 127.861 22.8676C127.74 22.8759 127.668 22.8943 127.601 22.9443C127.515 23.0094 127.461 23.0912 127.258 23.0962C127.049 23.1012 126.836 23.1212 126.63 23.1496C126.433 23.178 126.341 23.1029 126.218 23.0578C126.126 23.0261 126.04 23.0211 125.923 23.0361C125.815 23.0495 125.748 23.0778 125.685 23.1312C125.545 23.2447 125.532 23.2447 125.361 23.1729C125.269 23.1346 125.186 23.1045 125.085 23.1112C124.666 23.1446 124.247 23.1813 123.828 23.2197C123.587 23.2414 123.584 23.2447 123.403 23.1613C123.314 23.1196 123.229 23.0995 123.124 23.1095C121.972 23.2096 120.821 23.3064 119.669 23.4116C119.491 23.4282 119.371 23.3932 119.244 23.3431C119.202 23.3265 119.161 23.3031 119.114 23.2964C119.066 23.2897 119.012 23.2964 118.961 23.2998C118.124 23.3715 117.283 23.4399 116.448 23.52C116.258 23.5384 116.157 23.485 116.027 23.4416C115.982 23.4266 115.944 23.4032 115.896 23.3965C115.849 23.3915 115.792 23.4032 115.741 23.4082C114.903 23.48 114.063 23.5484 113.228 23.6285C113.028 23.6468 112.942 23.5767 112.812 23.54C112.768 23.5267 112.72 23.5016 112.679 23.505C112.416 23.5233 112.156 23.5484 111.892 23.5701C111.264 23.6251 110.636 23.6769 110.008 23.7336C109.766 23.7553 109.662 23.6068 109.459 23.6134C109.195 23.6218 108.935 23.6552 108.672 23.6785C108.462 23.6969 108.253 23.7136 108.044 23.7336C107.837 23.752 107.837 23.7519 107.323 23.6552C107.279 23.6468 107.225 23.6351 107.181 23.6385C106.448 23.7002 105.712 23.762 104.982 23.8287C104.814 23.8437 104.674 23.8354 104.554 23.7736C104.468 23.7303 104.379 23.7086 104.274 23.7186C103.173 23.8137 102.076 23.9088 100.975 24.0022C100.933 24.0056 100.879 23.9889 100.838 23.9755C100.749 23.9455 100.664 23.9105 100.578 23.8788C100.515 23.9171 100.432 23.9522 100.391 23.9956C100.334 24.054 100.258 24.0706 100.137 24.0807C100.016 24.0907 99.9403 24.0873 99.8451 24.044C99.7309 23.9906 99.6135 23.9488 99.4263 23.9655C98.2746 24.0706 97.1228 24.1658 95.9711 24.2692C95.7807 24.2859 95.6919 24.2125 95.5587 24.1741C95.5142 24.1624 95.4634 24.1441 95.4222 24.1474C94.9494 24.1858 94.4799 24.2275 94.0071 24.2675C92.6967 24.381 91.3864 24.4895 90.0792 24.6096C89.8412 24.6313 89.6794 24.5896 89.5113 24.5178C89.4764 24.5028 89.4161 24.4945 89.3717 24.4978C87.5378 24.6547 85.7039 24.8132 83.8732 24.9717C83.7748 24.98 83.6796 24.9533 83.6003 24.9099C83.5178 24.8649 83.4258 24.8432 83.3243 24.8515C82.4866 24.9233 81.649 24.9951 80.8114 25.0685C80.602 25.0868 80.5988 25.0885 80.3831 25.0084C80.3386 24.9917 80.2911 24.96 80.2562 24.9633C80.1832 24.9717 80.1134 25.0134 80.0626 25.0701C80.0118 25.1302 79.9325 25.1469 79.8151 25.1586C79.6945 25.1702 79.6152 25.1652 79.5232 25.1252C79.4058 25.0751 79.2979 25.0268 79.1076 25.0434C76.6994 25.257 74.2912 25.4622 71.8831 25.6741C71.6895 25.6908 71.6007 25.6208 71.4674 25.5824C71.423 25.5707 71.3786 25.554 71.331 25.5507C71.2802 25.5473 71.2263 25.5574 71.1755 25.5624C67.2476 25.9011 63.3197 26.2415 59.3917 26.5802C59.1569 26.6002 59.1601 26.6002 58.9031 26.7537C58.8714 26.7721 58.8301 26.7971 58.7857 26.8004C57.5832 26.9072 56.3775 27.0107 55.1719 27.1141C54.6483 27.1592 54.1248 27.2059 53.6013 27.2493C53.4141 27.2643 53.4141 27.2643 52.9668 27.4445C52.9287 27.4596 52.8842 27.4796 52.8398 27.4829C50.7457 27.6648 48.6517 27.8467 46.5544 28.0252C46.3895 28.0386 46.2562 28.0686 46.1801 28.1487C46.1261 28.2054 46.0563 28.2388 45.9516 28.2488C44.4858 28.3756 43.02 28.5041 41.551 28.6276C41.3765 28.6426 41.2717 28.6893 41.1861 28.7594C41.1575 28.7827 41.1321 28.8094 41.0909 28.8261C41.0528 28.8411 40.9957 28.8461 40.9481 28.8511C39.6917 28.9596 38.4353 29.0714 37.1756 29.1749C36.9885 29.1899 36.9123 29.2516 36.8203 29.3167C36.7885 29.3384 36.7663 29.3684 36.7251 29.3834C36.6838 29.3968 36.6235 29.3968 36.5728 29.4001C35.5257 29.4902 34.4787 29.582 33.4317 29.6721C33.2286 29.6638 33.1842 29.7605 33.0858 29.8189C33.0509 29.839 33.0256 29.8657 32.9844 29.879C32.9399 29.8923 32.8828 29.8907 32.8288 29.894C31.9912 29.9658 31.1536 30.0425 30.3128 30.1093C30.1193 30.1243 30.0812 30.2094 29.9765 30.2678C29.9416 30.2861 29.9067 30.3145 29.8655 30.3195C29.3419 30.3679 28.8185 30.4129 28.2949 30.4563C28.1204 30.4713 28.1204 30.4697 27.8127 30.6349C27.7778 30.6532 27.7365 30.6733 27.6921 30.6783C26.9084 30.7483 26.1215 30.8151 25.3347 30.8835C25.2331 30.8918 25.1634 30.9319 25.1126 30.9886C25.0618 31.0453 24.9889 31.0821 24.8873 31.0904C24.2591 31.1455 23.6308 31.2022 23.0026 31.2522C22.8281 31.2656 22.7139 31.3073 22.6378 31.3824C22.5807 31.4391 22.5109 31.4675 22.3998 31.4775C21.7716 31.5309 21.1434 31.5893 20.512 31.636C20.328 31.6494 20.2328 31.7061 20.1566 31.7762C20.0963 31.8329 20.0265 31.8529 19.9091 31.863C18.7574 31.9597 17.6025 32.0565 16.454 32.1633C16.2604 32.1816 16.162 32.1232 16.0351 32.0815C15.8543 32.0231 15.6862 31.9597 15.6862 31.8296C15.6862 31.8095 15.6322 31.7862 15.5941 31.7695C15.3118 31.6444 15.3117 31.6444 15.2673 31.5109C15.2419 31.4291 15.2134 31.3457 15.1912 31.2623C15.1499 31.1254 15.0484 31.0904 14.7565 31.1154C14.6518 31.1238 14.5471 31.1354 14.4424 31.1421C14.2869 31.1538 14.1695 31.0987 14.141 30.9986C14.1251 30.9436 14.1061 30.8885 14.0902 30.8334C14.2489 30.8201 14.2457 30.8184 14.5249 30.6165C14.6423 30.5314 14.6423 30.5314 14.417 30.4463C14.3314 30.4146 14.2489 30.3796 14.1568 30.3495C14.1156 30.3362 14.0617 30.3278 14.0173 30.3312C13.7539 30.3512 13.4938 30.3746 13.2336 30.3979C12.8148 30.4346 12.8147 30.4346 12.3896 30.2644C12.3547 30.2511 12.3007 30.2261 12.3071 30.2127C12.342 30.151 12.4276 30.1243 12.5355 30.1176C12.6941 30.1076 12.8496 30.0909 13.0051 30.0776C13.1098 30.0692 13.2145 30.0592 13.3192 30.0509C13.4175 29.9875 13.5191 29.9257 13.6111 29.8606C13.7571 29.7605 13.757 29.7572 13.5571 29.6871C13.4302 29.6404 13.2938 29.5987 13.1637 29.5553C13.0082 29.5686 12.8496 29.5836 12.6941 29.5953C12.4974 29.6103 12.4181 29.5786 12.3673 29.4702C12.3229 29.3751 12.3769 29.2933 12.5291 29.2733C12.6846 29.2533 12.8306 29.2399 12.9099 29.1548C12.9861 29.0731 13.1193 29.0414 13.2843 29.0347C13.389 29.0297 13.4937 29.018 13.5984 29.008C13.7349 28.9947 13.8079 28.9095 13.7793 28.8144C13.7634 28.7527 13.7317 28.701 13.608 28.6876C13.0591 28.6292 13.0527 28.6309 12.7798 28.5174C12.7544 28.5074 12.7354 28.4774 12.745 28.4624C12.7608 28.4373 12.7957 28.4006 12.8338 28.3956C13.1987 28.3589 13.5635 28.3256 13.9284 28.3005C14.049 28.2922 14.1378 28.2805 14.1791 28.2187C14.2362 28.1336 14.2108 28.0552 14.0998 27.9968C14.0649 27.9785 14.0077 27.9551 13.9696 27.9568C13.5508 27.9868 13.1352 28.0252 12.7164 28.0552C12.6783 28.0586 12.6085 28.0302 12.5927 28.0085C12.5609 27.9685 12.6085 27.9151 12.7195 27.8967C12.8655 27.8717 13.0146 27.87 13.113 27.7866C13.2494 27.6681 13.4175 27.5597 13.5698 27.4462C13.5952 27.4262 13.6365 27.3878 13.627 27.3845C13.5477 27.3477 13.4557 27.3194 13.3732 27.2843C13.2336 27.2259 13.2335 27.1442 13.2653 27.0658C13.2906 27.0024 13.3858 26.9773 13.5032 26.9773C13.554 26.9773 13.6174 26.9773 13.6587 26.9623C13.7666 26.9256 13.8015 26.8789 13.7475 26.8438C13.7158 26.8238 13.6587 26.7955 13.6207 26.7988C12.9417 26.8539 12.2595 26.9072 11.5837 26.9757C11.3838 26.9957 11.2918 26.9323 11.1712 26.8872C11.0792 26.8522 10.9935 26.8388 10.8793 26.8639C10.7714 26.8872 10.6668 26.8739 10.6001 26.8188C10.5462 26.7738 10.6414 26.7354 10.8984 26.692C10.9459 26.6837 10.9999 26.6786 11.0348 26.662C11.4028 26.4818 11.4028 26.4801 11.6566 26.4567C11.9041 26.435 11.9042 26.4334 12.0342 26.3366C12.0945 26.2915 12.1611 26.2465 12.2182 26.1998C12.2404 26.1814 12.2785 26.148 12.2659 26.138C12.1961 26.0863 12.1008 26.0746 11.9898 26.0863C11.7423 26.1147 11.4504 26.0913 11.3204 26.2498C11.2696 26.3099 11.1903 26.3266 11.076 26.3366C9.92749 26.4334 8.77889 26.5368 7.62716 26.6303C7.43996 26.6453 7.35435 26.707 7.28137 26.7754C7.21791 26.8322 7.1481 26.8489 7.02753 26.8589C6.90696 26.8689 6.81173 26.8739 6.74193 26.8188C6.70068 26.7854 6.73559 26.7387 6.83078 26.692C6.96721 26.6253 6.94181 26.5418 6.8974 26.4634C6.86567 26.4117 6.76731 26.375 6.66261 26.3783C6.50714 26.385 6.35806 26.4033 6.22797 26.3366C6.15183 26.2982 6.05662 26.2715 5.97096 26.2381C5.80597 26.1697 5.64098 26.0996 5.40936 26.1447C5.25072 26.128 5.13967 26.0679 5.01276 26.0212C4.80018 25.9445 4.78114 25.9328 4.93344 25.851C5.10477 25.7593 4.97149 25.6391 5.06667 25.549C5.1682 25.4522 5.30785 25.3671 5.43159 25.277C5.46332 25.2537 5.49189 25.232 5.52362 25.2086C5.45064 25.1753 5.38403 25.1335 5.29836 25.1102C5.18731 25.0802 5.1302 25.0434 5.13654 24.94C5.11433 24.925 5.12379 24.9633 5.14917 24.9734C5.17772 24.9834 5.24758 24.975 5.28248 24.9633C5.37132 24.9316 5.41569 24.8899 5.39348 24.8549C5.38079 24.8365 5.32055 24.8132 5.28248 24.8132C5.21268 24.8132 5.1524 24.8499 5.13337 24.94C4.77801 25.0084 4.40991 25.0418 4.04186 25.0685C4.00379 25.0718 3.95622 25.0384 3.9118 25.0217C3.76585 24.965 3.76583 24.9667 3.3375 24.95C3.29308 24.9483 3.23283 24.925 3.21062 24.9016C3.11861 24.7998 3.12181 24.688 3.07739 24.5796C3.15988 24.5095 3.24231 24.4411 3.32798 24.3727C3.49931 24.2342 3.72145 24.1124 3.85471 23.9605C3.82616 23.8788 3.78808 23.797 3.92768 23.7303C4.32428 23.6468 4.32114 23.6468 4.42901 23.5667C4.73677 23.3398 5.04135 23.1112 5.3618 22.8876C5.44747 22.8292 5.44748 22.7975 5.29518 22.7725C5.24759 22.7658 5.19676 22.7641 5.14599 22.7675C4.98735 22.7792 4.82872 22.8092 4.67325 22.8025C4.51778 22.7975 4.40356 22.7241 4.27664 22.679C4.14656 22.6323 4.01648 22.5839 3.88639 22.5355C3.73727 22.5406 3.58818 22.5873 3.43906 22.5122C3.32483 22.4538 3.18207 22.4121 3.05198 22.3637C3.15034 22.2369 3.33439 22.1401 3.47717 22.0283C3.60725 21.9265 3.61035 21.9282 3.95936 21.8498C4.12435 21.8131 4.18146 21.6245 4.04186 21.5694C3.8737 21.5027 3.69606 21.4409 3.52473 21.3775C3.3756 21.3825 3.22334 21.4276 3.08056 21.3525C2.96952 21.2958 2.84258 21.2574 2.65855 21.2791C2.34762 21.3158 2.03035 21.3342 1.71624 21.3642C1.60836 21.3742 1.49093 21.3675 1.44334 21.3108C1.41161 21.2708 1.50363 21.2157 1.60833 21.204C1.76697 21.1873 1.90974 21.1673 1.98906 21.0839C2.0652 21.0005 2.20479 20.9754 2.36978 20.9637C2.4142 20.9604 2.465 20.9404 2.48721 20.9203C2.60143 20.8236 2.72835 20.7402 2.97266 20.7435C3.07419 20.7101 3.12809 20.6684 3.09637 20.6283C3.07733 20.6067 3.01073 20.5783 2.97266 20.5816C2.70932 20.5983 2.44598 20.615 2.18898 20.645C2.06842 20.6584 1.97636 20.6617 1.90021 20.6117C1.84627 20.5783 1.87482 20.5332 1.97635 20.4848C2.06519 20.4431 2.0906 20.3947 2.08426 20.338C2.06839 20.2062 1.97319 20.1678 1.6686 20.1762C1.44967 20.1828 1.39573 20.1611 1.34814 20.0477C1.33545 20.021 1.30378 19.9843 1.32599 19.9659C1.46242 19.8525 1.55126 19.7123 1.80826 19.6589C1.90979 19.6389 2.01762 19.6389 2.08108 19.5955C2.14454 19.5521 2.20167 19.502 2.2683 19.4603C2.3508 19.4103 2.40785 19.3636 2.36978 19.3319C2.30632 19.2751 2.20483 19.2701 2.08743 19.2902C1.9859 19.3068 1.87803 19.3085 1.77333 19.3185C1.58613 19.3369 1.43387 19.2935 1.41166 19.2201C1.35138 19.0265 1.2879 18.8346 1.23396 18.6411C1.22762 18.6177 1.24344 18.5877 1.26882 18.5676C1.35766 18.4976 1.45288 18.4308 1.54489 18.3624C1.65277 18.284 1.82413 18.299 1.97008 18.284C2.17631 18.2623 2.17624 18.264 2.45227 18.1038C2.56015 18.0404 2.74736 18.0654 2.8584 18.0087C2.89331 17.9903 2.94724 17.9603 2.93773 17.9436C2.92503 17.9219 2.86161 17.9052 2.81402 17.8952C2.7696 17.8852 2.71567 17.8802 2.66808 17.8852C2.09063 17.9336 1.51636 17.9853 0.938912 18.032C0.840555 18.0404 0.732676 18.0037 0.697775 17.9519C0.662874 17.9036 0.672361 17.8451 0.666016 17.7901C0.758027 17.7217 0.86269 17.6583 0.94201 17.5848C1.00229 17.5281 1.07211 17.5031 1.19268 17.4997C1.35132 17.4947 1.5068 17.4747 1.68448 17.4597C2.01445 17.2161 2.33806 16.9608 2.69341 16.7172C2.83619 16.6187 2.80134 16.5186 2.8299 16.4135C2.85845 16.3167 3.07102 16.3317 3.2138 16.3034C3.32802 16.28 3.36604 16.2266 3.32162 16.1899C3.29624 16.1682 3.23916 16.1432 3.19474 16.1432C3.09004 16.1432 2.98534 16.1582 2.88064 16.1665C2.77593 16.1749 2.65537 16.1699 2.56971 16.1983C2.48721 16.225 2.43324 16.2817 2.37931 16.3301C2.31902 16.3835 2.23976 16.4018 2.11919 16.4052C1.96372 16.4085 1.80826 16.4235 1.6528 16.4352C1.48146 16.3701 1.30375 16.3067 1.13876 16.2383C1.10703 16.225 1.10065 16.1866 1.10383 16.1616C1.11017 16.0965 1.06259 16.0564 0.95789 16.0247C0.869051 15.998 0.79607 15.9597 0.713577 15.9263C0.777033 15.8812 0.84686 15.8378 0.897625 15.7894C1.00867 15.6877 1.14829 15.6143 1.38943 15.6176C1.48461 15.5525 1.56074 15.4724 1.68448 15.4274C1.80187 15.384 2.00177 15.4274 2.09061 15.3289C2.13503 15.2805 2.20169 15.2255 2.28736 15.2054C2.42379 15.1737 2.60147 15.1904 2.68079 15.097C2.72838 15.0436 2.79815 14.9952 2.89016 14.9819C2.99487 14.9668 3.10271 14.9635 3.17886 14.9318C3.22011 14.9151 3.26453 14.8884 3.26453 14.8651C3.26453 14.85 3.20113 14.8267 3.15671 14.8167C3.11546 14.805 3.06146 14.7966 3.01387 14.8C2.85523 14.81 2.69976 14.8283 2.54112 14.8384C2.4967 14.8417 2.44595 14.83 2.39836 14.82C2.25876 14.7933 2.26826 14.7599 2.37931 14.6999C2.49035 14.6415 2.56972 14.5664 2.66173 14.498C2.76326 14.4863 2.89015 14.4913 2.95996 14.4596C3.07735 14.4079 3.15982 14.3328 3.25501 14.2677C3.35971 14.2577 3.46758 14.2544 3.56594 14.236C3.60718 14.2293 3.62624 14.1926 3.66114 14.1709C3.72459 14.1292 3.77857 14.0691 3.86424 14.0491C4.00384 14.0191 4.17517 14.0308 4.25767 13.939C4.30526 13.8856 4.37821 13.8289 4.46704 13.8255C4.71452 13.8189 4.81923 13.7271 4.94614 13.6403C5.04133 13.5752 5.24439 13.6086 5.3491 13.5435C5.4189 13.5018 5.4697 13.4501 5.5395 13.41C5.56805 13.3934 5.62831 13.385 5.67591 13.38C5.93608 13.355 6.19941 13.3366 6.45958 13.3099C6.50083 13.3049 6.53893 13.2799 6.57066 13.2599C6.63729 13.2165 6.67849 13.1564 6.76099 13.1281C6.84348 13.0997 6.96086 13.0997 7.06239 13.0914C7.38919 13.0663 7.4146 13.073 7.56372 12.9312C7.68428 12.816 7.97939 12.8978 8.07775 12.771C8.13486 12.6976 8.23952 12.6375 8.42671 12.6292C8.69006 12.6175 8.95022 12.5858 9.21357 12.5641C9.44836 12.5441 9.44519 12.544 9.69902 12.3889C9.81324 12.3188 9.98143 12.3288 10.1306 12.3155C10.2892 12.3021 10.4351 12.2821 10.5113 12.1987C10.5874 12.1169 10.727 12.0902 10.8888 12.0785C11.0379 12.0668 11.2061 12.0752 11.3235 12.0084C11.6091 11.8483 11.6059 11.8466 11.8058 11.8299C12.1199 11.8032 12.434 11.7765 12.7481 11.7481C12.9575 11.7298 13.1765 11.7264 13.3732 11.6897C13.5159 11.663 13.5794 11.5696 13.6714 11.5045C13.9316 11.4795 14.1917 11.4545 14.4519 11.4311C14.8168 11.3977 15.1848 11.3677 15.5529 11.336C15.7115 11.2726 15.7338 11.1324 16.0003 11.1258C16.1589 11.1224 16.3144 11.1007 16.473 11.0874C16.7364 11.064 16.9965 11.034 17.2599 11.0223C17.4598 11.014 17.4946 10.9238 17.5993 10.8671C17.6342 10.8471 17.666 10.8187 17.7072 10.8137C18.1197 10.767 18.5448 10.757 18.9477 10.6886C18.989 10.6819 19.0271 10.6469 19.0366 10.6218C19.0429 10.6085 18.989 10.5835 18.9541 10.5718C18.9129 10.5584 18.8589 10.5451 18.8145 10.5484C17.5041 10.6602 16.1938 10.7737 14.8834 10.8855C14.6994 10.9022 14.6994 10.9005 14.252 11.084C14.214 11.0991 14.1695 11.1157 14.1219 11.1207C13.9125 11.1408 13.6999 11.1525 13.4937 11.1775C13.3255 11.1975 13.186 11.1775 13.0654 11.1174C12.9797 11.074 12.8909 11.0607 12.783 11.064C12.6624 11.069 12.5831 11.0874 12.5133 11.1324C12.4213 11.1942 12.3737 11.2743 12.1802 11.2909C11.2886 11.3627 10.397 11.4428 9.50862 11.5195C9.38488 11.4962 9.3246 11.4611 9.35633 11.4194C9.37537 11.3944 9.41345 11.361 9.45153 11.3577C9.8164 11.3226 10.1844 11.2926 10.5493 11.2592C10.6001 11.2542 10.6699 11.2576 10.6984 11.2409C10.838 11.1658 10.8888 11.044 11.1522 11.0356C11.3045 11.0306 11.4599 11.0056 11.6059 10.9823C11.6471 10.9756 11.6852 10.9405 11.6947 10.9155C11.6979 10.9022 11.6471 10.8771 11.6091 10.8654C11.4695 10.8171 11.3077 10.8755 11.1681 10.8421C11.1205 10.8304 11.0538 10.8137 11.0443 10.7937C11.0379 10.7754 11.0919 10.7453 11.13 10.727C11.1649 10.7103 11.2124 10.6953 11.26 10.6903C11.6788 10.6519 12.0977 10.6118 12.5165 10.5818C12.6879 10.5701 12.8084 10.5284 12.8845 10.4516C12.9416 10.3949 13.0114 10.3649 13.1193 10.3565C13.8522 10.2948 14.5851 10.2264 15.3212 10.1697C15.5053 10.1563 15.6005 10.1013 15.6766 10.0295C15.7369 9.97277 15.8067 9.95274 15.9241 9.94273C16.9743 9.85597 18.0182 9.75919 19.0684 9.67576C19.2619 9.66075 19.319 9.58899 19.4174 9.52726C19.4523 9.50556 19.4745 9.47887 19.5189 9.46552C19.5633 9.45217 19.6204 9.45382 19.6743 9.45049C20.512 9.37874 21.3496 9.302 22.1904 9.23525C22.3872 9.22024 22.4252 9.1368 22.5267 9.0784C22.5616 9.06004 22.5934 9.03002 22.6346 9.02501C23.2628 8.96828 23.891 8.91488 24.5192 8.85982C24.938 8.82311 25.3568 8.7864 25.7757 8.75136C25.9819 8.73467 25.9819 8.73299 26.2611 8.57448C26.2928 8.55612 26.3373 8.53443 26.3785 8.52942C27.5842 8.42263 28.7867 8.32087 29.9923 8.21575C30.0939 8.20741 30.1668 8.16901 30.2176 8.11228C30.2684 8.05555 30.3414 8.01717 30.4398 8.00883C31.3821 7.9254 32.3244 7.84364 33.2699 7.76522C33.4412 7.75187 33.5618 7.71182 33.6379 7.63673C33.695 7.58 33.7648 7.54998 33.8727 7.54163C34.815 7.46154 35.7574 7.37643 36.7029 7.29968C36.8838 7.28466 36.9726 7.22793 37.0614 7.16119C37.0931 7.13783 37.1185 7.09945 37.1566 7.09611C37.6262 7.04939 38.0926 7.001 38.5653 6.9693C38.762 6.95595 38.8287 6.88587 38.908 6.81912C38.9715 6.76573 39.0444 6.74738 39.165 6.7407C39.4284 6.72569 39.6885 6.69733 39.9455 6.66897C39.9836 6.66396 40.0312 6.62725 40.0344 6.60389C40.0407 6.56051 39.9677 6.53047 39.8471 6.51545C38.5907 6.62391 37.3311 6.73236 36.0747 6.84082C35.8685 6.85917 35.8684 6.85918 35.5892 7.0177C35.5575 7.03605 35.5131 7.05774 35.4686 7.06275C34.263 7.16787 33.0605 7.27132 31.8548 7.37645C31.7533 7.38479 31.6803 7.42316 31.6296 7.4799C31.5788 7.53663 31.5058 7.57501 31.4074 7.58335C30.2557 7.68346 29.104 7.78525 27.9491 7.88036C27.7777 7.89371 27.6572 7.93207 27.5811 8.00883C27.5239 8.06556 27.4541 8.0956 27.3463 8.10395C26.2453 8.19739 25.1475 8.29582 24.0433 8.38593C23.9323 8.39427 23.8498 8.34588 23.8562 8.30083C23.8593 8.27747 23.9069 8.23911 23.9449 8.23577C24.5192 8.18071 25.0904 8.12397 25.6678 8.08225C25.8614 8.06891 25.9184 7.99549 26.0168 7.93375C26.0485 7.91206 26.0739 7.88369 26.1152 7.87201C26.1596 7.85866 26.2167 7.86034 26.2706 7.857C27.6318 7.73853 28.993 7.6184 30.3573 7.5066C30.554 7.48991 30.592 7.40814 30.6935 7.34974C30.7284 7.32972 30.7602 7.29969 30.8014 7.29636C31.2202 7.25631 31.639 7.22126 32.0579 7.18622C32.7908 7.12282 33.5237 7.05941 34.2598 6.996C34.4723 6.97765 34.4724 6.97764 34.7452 6.82079C34.7769 6.80244 34.8214 6.7791 34.8627 6.77576C36.8012 6.60723 38.7399 6.4387 40.6785 6.27184C40.78 6.2635 40.8529 6.22512 40.9037 6.16839C40.9545 6.11333 41.0274 6.07328 41.1258 6.06327C43.7465 5.83634 46.3641 5.6094 48.9849 5.38581C49.1562 5.3708 49.2767 5.33575 49.3529 5.25733C49.4068 5.2006 49.4798 5.17057 49.5877 5.16056C52.4686 4.91194 55.3495 4.66332 58.2336 4.41303C60.1722 4.24618 62.1108 4.07598 64.0494 3.91246C64.2271 3.89744 64.3222 3.84571 64.4111 3.77729C64.4396 3.75393 64.4682 3.71555 64.5063 3.71222C64.9219 3.6705 65.3375 3.63213 65.7532 3.59375C65.8832 3.6388 66.0133 3.6822 66.1434 3.72725C66.2418 3.66384 66.337 3.59876 66.4354 3.53536C67.0636 3.48697 67.6823 3.41188 68.3168 3.38852C68.3581 3.38685 68.4025 3.41856 68.4469 3.43525C68.742 3.54037 68.9101 3.53202 69.0973 3.39186C69.164 3.3418 69.221 3.29675 69.3226 3.28841C69.6367 3.25837 69.954 3.23835 70.265 3.20331C70.4331 3.18495 70.5727 3.20164 70.6933 3.26171C70.7789 3.30509 70.8678 3.32345 70.9725 3.31344C71.55 3.26338 72.1242 3.21499 72.7017 3.16159C72.7429 3.15826 72.781 3.12988 72.8127 3.10986C72.8793 3.06648 72.9364 3.01977 72.9999 2.97471C73.0856 3.00308 73.1808 3.02477 73.2506 3.06148C73.3394 3.10487 73.4219 3.10486 73.5424 3.09318C75.8459 2.89128 78.1526 2.69439 80.456 2.49082C80.6527 2.47413 80.7384 2.54422 80.8717 2.58093C80.9161 2.59428 80.9605 2.61096 81.0081 2.61429C81.0589 2.61763 81.1128 2.60763 81.1636 2.60262C82.8927 2.45245 84.622 2.30393 86.3511 2.15376C86.5796 2.13374 86.5796 2.13374 86.9191 2.23719C86.9603 2.25054 87.0143 2.26556 87.0587 2.26055C87.8455 2.19548 88.6324 2.1254 89.4161 2.05866C89.5176 2.05032 89.6033 2.07701 89.6953 2.11539C89.8762 2.19047 89.8888 2.19048 90.022 2.08035C90.0855 2.02863 90.1521 1.99691 90.2568 1.98189C90.371 1.96521 90.4631 1.97023 90.552 2.00026C90.6789 2.04198 90.7709 2.11205 90.9644 2.0937C91.8021 2.01527 92.6428 1.9502 93.4773 1.87011C93.6676 1.85176 93.7692 1.90848 93.8961 1.9502C93.9405 1.96522 93.9818 1.98858 94.0293 1.99358C94.0769 1.99859 94.134 1.9869 94.1848 1.98189C95.2318 1.89179 96.282 1.80337 97.3259 1.70659C97.5226 1.68824 97.6083 1.75997 97.7415 1.79668C97.7859 1.81003 97.8367 1.8334 97.8779 1.83007C98.5062 1.77834 99.1376 1.72326 99.7658 1.6682C99.9911 1.64817 99.991 1.64984 100.334 1.75163C100.375 1.76498 100.429 1.77833 100.473 1.77499C101.206 1.71325 101.942 1.64984 102.675 1.58644C102.901 1.56642 102.901 1.56642 103.551 1.65319C103.599 1.65986 103.649 1.66988 103.697 1.66655C104.535 1.5948 105.375 1.52471 106.213 1.44795C106.381 1.43294 106.521 1.44628 106.641 1.50635C106.727 1.54973 106.816 1.5681 106.92 1.55809C107.863 1.47632 108.808 1.3979 109.747 1.31114C109.928 1.29445 110.046 1.33115 110.173 1.37954C110.214 1.39622 110.255 1.41959 110.303 1.42626C110.35 1.43293 110.404 1.42626 110.455 1.42125C111.397 1.33949 112.343 1.26274 113.282 1.1743C113.472 1.15595 113.574 1.21268 113.701 1.25439C113.745 1.26941 113.793 1.29944 113.831 1.29778C114.199 1.26941 114.567 1.24439 114.932 1.20268C115.129 1.17932 115.214 1.25606 115.347 1.29277C115.392 1.30445 115.443 1.32949 115.484 1.32615C116.271 1.26107 117.058 1.19267 117.841 1.12259C117.952 1.11258 118.035 1.12758 118.124 1.17096C118.241 1.22936 118.378 1.25272 118.549 1.23437C118.914 1.19599 119.282 1.1693 119.65 1.1376C119.866 1.11924 119.866 1.11925 120.526 1.20602C120.573 1.21269 120.624 1.22269 120.671 1.21936C121.3 1.16596 121.931 1.11424 122.556 1.05584C122.724 1.03915 122.864 1.05417 122.984 1.11424C123.07 1.15762 123.156 1.17598 123.264 1.16597C123.841 1.11591 124.415 1.06585 124.993 1.01579C125.202 0.99744 125.412 0.965729 125.621 0.965729C125.773 0.967398 125.884 1.04749 126.021 1.08753C126.059 1.09921 126.122 1.08588 126.173 1.08254C126.906 1.01914 127.642 0.96073 128.372 0.88898C128.562 0.870626 128.664 0.927355 128.791 0.969069C128.835 0.984087 128.883 1.01412 128.921 1.01245C129.184 0.9941 129.444 0.969069 129.708 0.947377C130.022 0.92068 130.339 0.900657 130.65 0.863948C130.904 0.833913 130.999 0.979075 131.202 0.984081C131.358 0.989087 131.516 0.960726 131.672 0.947377C131.986 0.92068 132.3 0.890648 132.614 0.867288C132.725 0.858945 132.811 0.832236 132.846 0.772167C132.852 0.760487 132.798 0.735469 132.763 0.720452C132.341 0.550256 132.341 0.550248 131.916 0.586957C131.653 0.610317 131.392 0.633681 131.129 0.653704C131.085 0.657041 131.034 0.643693 130.989 0.633682C130.863 0.605316 130.875 0.571947 130.983 0.511878C131.091 0.451809 131.173 0.378398 131.265 0.309986C131.396 0.353369 131.523 0.396737 131.653 0.44012C131.757 0.431777 131.862 0.42178 131.967 0.413437C132.49 0.370054 133.014 0.324999 133.537 0.284953C133.575 0.281616 133.623 0.314992 133.667 0.331678C133.794 0.380067 133.908 0.421771 134.093 0.403416C134.562 0.355027 135.035 0.319987 135.504 0.278272C135.711 0.259918 135.711 0.259919 136.072 0.363372C136.114 0.375052 136.168 0.388401 136.212 0.385064C136.685 0.346687 137.154 0.304977 137.627 0.264931C137.729 0.256588 137.827 0.278279 137.9 0.326668C137.928 0.346691 137.922 0.380056 138.043 0.653704C138.417 0.875626 138.674 0.852277 138.934 0.832254C139.045 0.823911 139.144 0.81556 139.217 0.782189C139.255 0.763834 139.302 0.737133 139.302 0.715441C139.302 0.698755 139.233 0.672053 139.188 0.668716C138.874 0.635344 138.576 0.705434 138.268 0.720452C138.125 0.727126 138.001 0.668725 137.976 0.573615C137.97 0.546918 137.96 0.518553 137.951 0.491856C137.941 0.465159 137.935 0.436794 137.925 0.410097C137.802 0.401754 137.729 0.431784 137.675 0.488516C137.63 0.535236 137.567 0.588631 137.481 0.61366C137.395 0.640357 137.278 0.63536 137.173 0.643703C137.072 0.652046 136.961 0.673735 136.866 0.662055C136.77 0.648706 136.694 0.600309 136.605 0.570275C136.564 0.555257 136.513 0.533574 136.472 0.536911C136.107 0.565277 135.746 0.593633 135.384 0.630341C135.194 0.650364 135.098 0.580294 134.978 0.536911C134.883 0.503539 134.787 0.511872 134.771 0.588627C134.73 0.772171 134.876 0.848922 135.2 0.813882C135.466 0.783847 135.707 0.778857 135.917 0.892321C135.945 0.907338 136.012 0.91401 136.053 0.910673C136.313 0.89065 136.57 0.865619 136.831 0.845596C136.878 0.842258 136.929 0.848922 136.973 0.855597C137.621 0.9457 137.621 0.947378 137.84 0.927355C137.944 0.917343 138.046 0.908999 138.036 0.655374C138.236 0.383395 138.554 0.365044 138.861 0.324997C139.061 0.299969 139.147 0.37339 139.277 0.411767C139.321 0.425116 139.369 0.451808 139.41 0.448471C140.092 0.393408 140.771 0.334999 141.45 0.273262C141.564 0.26325 141.647 0.273263 141.736 0.316646C141.85 0.37171 141.977 0.406757 142.158 0.386734C142.519 0.346688 142.888 0.321665 143.256 0.288293C143.443 0.271608 143.443 0.27159 143.82 0.375043C143.862 0.386723 143.916 0.400072 143.96 0.396735C144.328 0.368369 144.693 0.33334 145.058 0.303305C145.159 0.294962 145.251 0.31832 145.331 0.363372C145.41 0.408424 145.505 0.431781 145.604 0.423438C145.972 0.393404 146.336 0.360043 146.701 0.330008C146.746 0.326671 146.8 0.33835 146.841 0.35003C147.228 0.453483 147.228 0.453466 147.406 0.43678C147.666 0.411751 147.932 0.400084 148.189 0.366712C148.44 0.33334 148.57 0.43011 148.741 0.483505C149.211 0.445128 149.684 0.413433 150.15 0.366712C150.34 0.346689 150.442 0.401748 150.569 0.445131C150.613 0.460148 150.658 0.491854 150.699 0.490186C150.858 0.483512 151.013 0.46516 151.169 0.451812C151.324 0.438463 151.483 0.425116 151.638 0.411767C151.816 0.460156 151.933 0.573618 152.187 0.535241C152.339 0.511881 152.501 0.506875 152.657 0.493526C152.812 0.480178 152.971 0.466831 153.126 0.453482C153.231 0.445139 153.339 0.440126 153.44 0.425109C153.628 0.40008 153.72 0.48185 153.853 0.518559C153.897 0.530239 153.948 0.550249 153.989 0.546912C154.303 0.523552 154.621 0.503531 154.928 0.465153C155.166 0.435118 155.328 0.485183 155.496 0.555263C155.531 0.57028 155.592 0.578623 155.636 0.575285C156.004 0.546919 156.369 0.511869 156.734 0.481835C156.832 0.473492 156.927 0.500188 157.007 0.543572C157.089 0.588624 157.181 0.610331 157.283 0.601989C157.647 0.571954 158.016 0.538572 158.38 0.508538C158.425 0.505201 158.479 0.518552 158.52 0.531901C158.875 0.635353 158.875 0.637023 159.085 0.617C159.136 0.611994 159.19 0.608644 159.24 0.603638C159.5 0.580278 159.77 0.571947 160.024 0.531901C160.316 0.486849 160.528 0.543583 160.735 0.638693C160.995 0.618669 161.261 0.606987 161.515 0.573615C161.706 0.548586 161.807 0.611989 161.934 0.653704C161.978 0.668721 162.026 0.698756 162.064 0.695419C162.432 0.667053 162.8 0.642033 163.162 0.600318C163.359 0.576958 163.444 0.652031 163.577 0.690408C163.622 0.703757 163.669 0.727129 163.711 0.723792C163.92 0.710443 164.13 0.690411 164.339 0.672056C164.583 0.650364 164.583 0.652031 164.907 0.753815C165.059 0.802204 165.212 0.763825 165.361 0.752145C165.519 0.738796 165.668 0.728788 165.795 0.7972C165.875 0.840583 165.97 0.867282 166.068 0.860607C166.278 0.84559 166.49 0.83058 166.696 0.805551C166.861 0.785528 167.004 0.798869 167.125 0.860607C167.21 0.90399 167.299 0.925695 167.404 0.915684C167.874 0.875637 168.346 0.833907 168.816 0.79553C168.857 0.792193 168.914 0.807216 168.952 0.822233C169.041 0.852268 169.127 0.885632 169.212 0.919004C169.419 0.903986 169.631 0.897329 169.834 0.873969C170.05 0.850609 170.247 0.842263 170.415 0.934036C170.45 0.954059 170.501 0.982409 170.542 0.980741C170.7 0.974066 170.856 0.957385 171.011 0.944037C171.167 0.930688 171.325 0.917341 171.481 0.903992C171.662 0.945707 171.776 1.06584 172.03 1.02747C172.182 1.00411 172.344 0.9991 172.499 0.985751C172.655 0.972403 172.814 0.957387 172.969 0.945707C173.02 0.94237 173.077 0.934022 173.121 0.940696C173.169 0.94737 173.21 0.970736 173.251 0.987421C173.378 1.03581 173.496 1.08421 173.677 1.05584C173.829 1.03248 173.991 1.02747 174.146 1.01245C174.359 0.9941 174.359 0.994103 174.711 1.09922C174.854 1.14261 175.015 1.08588 175.152 1.12259C175.244 1.14762 175.323 1.18932 175.412 1.21769C175.45 1.22937 175.51 1.23437 175.555 1.23103C175.764 1.21601 175.977 1.201 176.183 1.17597C176.351 1.15595 176.491 1.17597 176.608 1.23604C176.694 1.27942 176.78 1.29779 176.887 1.28778C177.411 1.24105 177.935 1.201 178.455 1.14927C178.633 1.13091 178.775 1.15929 178.874 1.21936C179.042 1.32281 179.28 1.20101 179.454 1.28443C179.562 1.33616 179.67 1.39623 179.867 1.3712C180.228 1.32782 180.596 1.30445 180.961 1.27441C181.091 1.31947 181.222 1.36453 181.355 1.40958C181.564 1.39122 181.774 1.37286 181.983 1.35617C182.138 1.34282 182.297 1.32781 182.453 1.31613C182.503 1.31279 182.557 1.30611 182.605 1.31446C182.652 1.3228 182.691 1.3445 182.735 1.36118C182.954 1.44294 182.954 1.44462 183.316 1.41125C183.471 1.39623 183.62 1.38622 183.75 1.45296C183.871 1.5147 184.014 1.52637 184.179 1.50802C184.49 1.47465 184.804 1.44962 185.121 1.42626C185.219 1.41792 185.311 1.44628 185.394 1.48967C185.518 1.55808 185.67 1.55141 185.825 1.53305C186.032 1.50969 186.235 1.48634 186.409 1.57978C186.444 1.5998 186.498 1.62815 186.536 1.62648C186.796 1.61313 187.06 1.60313 187.313 1.57143C187.567 1.53972 187.691 1.64317 187.865 1.69323C188.126 1.67154 188.389 1.64984 188.649 1.62815C188.7 1.62315 188.76 1.60814 188.805 1.61648C188.992 1.65152 189.1 1.77666 189.357 1.73829C189.506 1.71659 189.668 1.70993 189.823 1.70492C189.864 1.70325 189.918 1.73161 189.947 1.7533C189.963 1.76498 189.947 1.79668 189.928 1.81336C189.871 1.86008 189.801 1.90348 189.75 1.95187C189.744 1.95854 189.804 1.98857 189.839 2.00191C189.925 2.03195 190.023 2.02695 190.137 2.01361C190.235 2.00193 190.337 2.02529 190.407 2.07534C190.435 2.09537 190.426 2.12873 190.366 2.23886C190.366 2.32062 190.432 2.2839 190.454 2.23051C190.489 2.15376 190.423 2.12873 190.296 2.17044C190.207 2.20048 190.163 2.24387 190.185 2.27891C190.197 2.29726 190.258 2.32062 190.366 2.23886C190.645 2.13875 190.854 2.1204 191.064 2.10205C191.118 2.09704 191.181 2.08034 191.219 2.09035C191.356 2.1304 191.482 2.1788 191.616 2.22385C191.768 2.21384 191.911 2.1888 192.06 2.25387C192.269 2.34565 192.279 2.3373 192.482 2.31895C192.587 2.30894 192.691 2.30061 192.796 2.29227C192.901 2.28392 192.983 2.30895 193.075 2.34732C193.262 2.42575 193.278 2.42574 193.402 2.31895C193.475 2.25388 193.526 2.23219 193.618 2.26222C193.922 2.36401 193.925 2.37068 194.186 2.34064C194.401 2.31561 194.604 2.30894 194.763 2.40405C194.871 2.47079 194.906 2.45578 194.992 2.3857C195.22 2.20048 195.325 2.20382 195.753 2.3373C195.953 2.40071 196.159 2.3323 196.362 2.32396C196.534 2.31729 196.654 2.35733 196.667 2.46245C196.676 2.52752 196.705 2.57425 196.819 2.59594C196.864 2.60428 196.917 2.61596 196.962 2.61262C197.225 2.5926 197.485 2.56924 197.749 2.54588C197.882 2.5342 197.955 2.45579 197.93 2.35233C197.901 2.24221 197.952 2.20215 198.142 2.17044C198.256 2.15209 198.348 2.15544 198.44 2.18548C198.542 2.21885 198.513 2.24888 198.425 2.30895C198.212 2.45578 198.237 2.54587 198.51 2.64766C198.605 2.6827 198.682 2.71441 198.704 2.76614C198.716 2.79284 198.704 2.82788 198.732 2.8479C198.888 2.95969 199.104 3.03145 199.345 3.08485C199.576 3.03979 199.735 3.11487 199.913 3.17494C200.052 3.22166 200.217 3.18162 200.366 3.16493C200.534 3.14658 200.674 3.15992 200.795 3.22166C200.88 3.26504 200.969 3.28506 201.074 3.27672C201.283 3.25836 201.496 3.24669 201.702 3.21999C201.88 3.19663 202.013 3.23001 202.124 3.28674C202.264 3.35849 202.419 3.31009 202.565 3.3201C202.762 3.33178 202.86 3.48028 203.117 3.44024C203.269 3.41688 203.428 3.40854 203.587 3.40186C203.628 3.40019 203.679 3.42856 203.714 3.44859C203.882 3.54036 204.079 3.53535 204.294 3.50865C204.443 3.4903 204.589 3.47362 204.735 3.53703C204.976 3.64382 205.243 3.73726 205.497 3.83571C205.532 3.91246 205.506 4.00255 205.687 4.0476C205.782 4.07096 205.871 4.10602 205.944 4.14439C206.033 4.18945 206.115 4.20113 206.23 4.18945C206.436 4.16609 206.652 4.16107 206.855 4.13103C207.042 4.10434 207.159 4.15942 207.274 4.21114C207.366 4.25286 207.451 4.27287 207.562 4.24284C207.677 4.21447 207.759 4.23282 207.851 4.27787C207.981 4.33961 207.991 4.33294 208.422 4.3513C208.467 4.35297 208.52 4.37798 208.546 4.39967C208.559 4.41135 208.53 4.44474 208.508 4.46143C208.479 4.48145 208.435 4.5048 208.394 4.5098C207.924 4.55319 207.451 4.59157 206.982 4.63495C206.934 4.63995 206.883 4.65165 206.848 4.66833C206.81 4.68669 206.763 4.7117 206.763 4.73506C206.763 4.75175 206.826 4.77178 206.871 4.78346C207.01 4.82183 207.175 4.76343 207.312 4.80682C207.404 4.83518 207.48 4.87522 207.572 4.90192C207.61 4.9136 207.67 4.91194 207.718 4.9086C207.876 4.89692 208.032 4.88024 208.191 4.87023C208.235 4.86856 208.286 4.88525 208.327 4.8986C208.632 4.99871 208.632 4.99871 208.895 4.97702C209 4.96867 209.111 4.94364 209.209 4.95365C209.304 4.96367 209.387 5.00872 209.472 5.03708C209.65 5.09715 209.818 5.15555 209.831 5.2857C209.837 5.33576 209.942 5.37914 210.047 5.38247C210.148 5.38581 210.256 5.36747 210.361 5.35746C210.608 5.33744 210.608 5.33744 210.929 5.43922C211.017 5.46758 211.113 5.47092 211.227 5.45423C211.271 5.44756 211.325 5.45424 211.373 5.46258C211.528 5.48761 211.528 5.51931 211.427 5.57937C211.284 5.66781 211.297 5.67616 211.696 5.75124C211.849 5.77961 211.966 5.83301 212.093 5.87973C212.299 5.95481 212.296 5.9548 212.16 6.05325C212.128 6.07494 212.099 6.0983 212.068 6.12167C211.976 6.18674 211.903 6.25682 211.712 6.26349C211.503 6.27017 211.293 6.29687 211.084 6.31523C210.881 6.33358 210.827 6.37361 210.846 6.48708C210.868 6.6239 210.91 6.63892 211.274 6.63725C211.379 6.63725 211.471 6.6506 211.55 6.69565C211.512 6.74904 211.443 6.79076 211.341 6.80077C211.081 6.8258 210.818 6.8475 210.557 6.86919C210.348 6.88754 210.139 6.90589 209.929 6.92424C209.799 6.93592 209.717 7.0227 209.752 7.11948C209.771 7.17454 209.786 7.2296 209.802 7.28466C209.837 7.39479 209.904 7.42317 210.116 7.41816C210.17 7.41649 210.221 7.40313 210.272 7.40647C210.478 7.41815 210.576 7.55664 210.824 7.52827C211.03 7.50491 211.246 7.49991 211.449 7.46988C211.636 7.44318 211.741 7.50326 211.871 7.54831C211.915 7.56333 211.963 7.59502 212.001 7.59335C212.264 7.57499 212.528 7.55666 212.785 7.52495C212.905 7.5116 212.978 7.52161 213.073 7.56166C213.302 7.65843 213.308 7.65343 213.648 7.62339C213.895 7.60003 213.898 7.60337 214.216 7.70515C214.305 7.73352 214.4 7.73351 214.514 7.72016C214.663 7.70348 214.818 7.67678 214.974 7.70181C215.022 7.70849 215.082 7.72852 215.098 7.75021C215.107 7.76522 215.063 7.80193 215.025 7.81361C214.746 7.90038 214.419 7.88537 214.114 7.92041C214.019 7.93042 213.924 7.89871 213.844 7.85366C213.762 7.80861 213.673 7.79026 213.565 7.7986C213.356 7.81696 213.143 7.82863 212.937 7.85533C212.759 7.87869 212.636 7.84031 212.512 7.78858C212.471 7.7719 212.423 7.74019 212.382 7.74186C211.912 7.77523 211.439 7.80861 210.973 7.85533C210.786 7.87535 210.678 7.82196 210.551 7.77691C210.507 7.76189 210.462 7.73019 210.421 7.73186C210.262 7.73853 210.107 7.75688 209.948 7.77023C209.371 7.82029 208.796 7.87035 208.219 7.91707C208.181 7.9204 208.133 7.88536 208.089 7.87034C208.003 7.84031 207.914 7.81194 207.826 7.78357C207.667 7.79692 207.511 7.8136 207.353 7.82362C207.239 7.83029 207.137 7.85366 207.121 7.91707C207.112 7.95878 207.216 7.99715 207.328 7.99381C207.435 7.99048 207.543 7.97045 207.632 7.99214C208.073 8.09893 208.073 8.10061 208.349 8.07891C208.59 8.05889 208.565 8.0422 208.777 8.13397C208.869 8.17402 208.952 8.19739 209.057 8.18738C209.317 8.16402 209.58 8.14065 209.844 8.12063C209.885 8.11729 209.939 8.13398 209.98 8.14733C210.291 8.24745 210.291 8.25078 210.548 8.22575C210.884 8.19572 210.897 8.18737 211.122 8.28916C211.278 8.35924 211.42 8.31085 211.57 8.30751C211.741 8.37258 211.928 8.43099 212.084 8.50441C212.268 8.59118 212.461 8.57615 212.67 8.55112C212.826 8.53276 212.978 8.52609 213.105 8.5945C213.226 8.65791 213.372 8.66459 213.537 8.64791C213.686 8.63289 213.838 8.60118 213.994 8.63789C214.035 8.6479 214.098 8.67293 214.095 8.68795C214.092 8.71131 214.051 8.74469 214.009 8.7547C213.718 8.82311 213.397 8.82144 213.089 8.85314C213.048 8.85815 212.994 8.83979 212.953 8.82644C212.864 8.7964 212.778 8.76137 212.693 8.72967C212.537 8.73968 212.379 8.74301 212.226 8.76303C212.109 8.77805 212.02 8.77639 211.934 8.73635C211.855 8.69964 211.769 8.65458 211.674 8.6429C211.579 8.63122 211.468 8.65625 211.363 8.66626C211.259 8.67627 211.138 8.67126 211.056 8.69795C210.973 8.72465 210.922 8.78306 210.868 8.82978C210.808 8.8815 210.726 8.8982 210.605 8.90321C210.494 8.90821 210.405 8.90153 210.323 8.85481C210.288 8.83479 210.24 8.81976 210.193 8.80642C210.148 8.79473 210.097 8.77637 210.056 8.77971C209.583 8.81809 209.114 8.85982 208.641 8.89987C208.406 8.91989 208.409 8.91987 207.921 8.82143C207.876 8.81308 207.822 8.80141 207.778 8.80474C207.515 8.82477 207.255 8.84813 206.991 8.87149C206.725 8.89485 206.728 8.89151 206.274 8.78639C206.192 8.76637 206.071 8.79307 205.973 8.78973C205.766 8.78139 205.665 8.64123 205.424 8.66793C205.218 8.69129 205.002 8.69629 204.796 8.72633C204.608 8.75302 204.501 8.69463 204.374 8.64958C204.329 8.63456 204.282 8.60119 204.243 8.60452C203.771 8.64123 203.301 8.68295 202.673 8.68795C202.517 8.68795 202.587 8.723 202.689 8.73468C202.835 8.75303 202.882 8.71799 202.803 8.65125C202.746 8.60453 202.663 8.58115 202.597 8.59283C202.562 8.59951 202.517 8.63122 202.673 8.68795C202.838 8.75136 202.828 8.78639 202.857 8.80642C202.927 8.8548 203.025 8.87483 203.127 8.86815C203.285 8.85647 203.441 8.83979 203.599 8.82978C203.644 8.82644 203.698 8.83812 203.739 8.85147C204.088 8.95492 204.091 8.9616 204.462 8.92156C204.58 8.90988 204.665 8.90988 204.758 8.94158C204.884 8.98496 204.976 9.05837 205.17 9.03501C205.427 9.00331 205.69 8.98497 205.954 8.96661C205.995 8.96328 206.039 8.99331 206.087 9.00666C206.217 9.0467 206.312 9.12179 206.506 9.09009C206.655 9.06506 206.817 9.05837 206.975 9.05336C207.017 9.05169 207.08 9.0784 207.099 9.10009C207.137 9.13847 207.09 9.18353 206.982 9.21523C206.937 9.22858 206.877 9.22524 206.826 9.23024C206.617 9.2486 206.407 9.26861 206.198 9.28363C206.087 9.29197 205.982 9.31701 205.97 9.37875C205.96 9.42046 206.074 9.45716 206.182 9.45383C206.341 9.44882 206.499 9.43547 206.652 9.41378C206.921 9.37707 207.156 9.38708 207.375 9.4922C207.531 9.56562 207.521 9.53894 207.686 9.75585C207.727 9.81091 207.851 9.81591 207.959 9.81258C208.219 9.80423 208.34 9.82927 208.317 9.881C208.289 9.9444 208.197 9.96441 208.079 9.97276C207.87 9.9861 207.661 10.0078 207.451 10.0262C207.4 10.0312 207.343 10.0412 207.296 10.0378C207.248 10.0345 207.204 10.0145 207.163 9.99946C207.074 9.96776 206.998 9.91936 206.902 9.90768C206.807 9.896 206.696 9.92103 206.591 9.93104C206.487 9.93938 206.376 9.96441 206.28 9.95273C206.185 9.94105 206.106 9.89101 206.02 9.86097C205.979 9.84596 205.928 9.82258 205.887 9.82425C205.678 9.8376 205.468 9.8593 205.259 9.87598C205.002 9.89768 205.002 9.89768 204.691 9.79423C204.602 9.76419 204.51 9.76587 204.393 9.77921C204.139 9.80591 204.136 9.80089 203.672 9.70412C203.628 9.6941 203.574 9.68243 203.53 9.68743C203.057 9.72581 202.587 9.76752 202.118 9.80757C201.715 9.84261 201.715 9.84262 201.493 10.0095C201.328 10.133 201.324 10.1329 201.486 10.1897C201.616 10.2364 201.734 10.3048 201.877 10.3298C202.01 10.3532 202.175 10.2781 202.321 10.3549C202.394 10.3932 202.489 10.435 202.581 10.4416C202.727 10.45 202.882 10.4016 203.022 10.475C203.092 10.5117 203.197 10.5501 203.285 10.5518C203.441 10.5551 203.599 10.5284 203.755 10.5167C203.803 10.5134 203.856 10.5134 203.901 10.5217C203.948 10.5317 203.99 10.5518 204.031 10.5685C204.158 10.6252 204.294 10.6519 204.459 10.6235C204.729 10.5768 204.97 10.6001 205.18 10.7069C205.208 10.722 205.278 10.7236 205.322 10.717C205.436 10.7003 205.535 10.6986 205.621 10.7303C205.655 10.7436 205.706 10.767 205.7 10.782C205.69 10.807 205.652 10.8404 205.611 10.8488C205.313 10.9055 204.992 10.9122 204.685 10.9422C204.643 10.9456 204.593 10.9238 204.551 10.9088C204.462 10.8788 204.386 10.8287 204.291 10.8171C204.196 10.8054 204.085 10.8271 203.98 10.8354C203.875 10.8438 203.764 10.8688 203.669 10.8588C203.574 10.8471 203.485 10.8054 203.409 10.7687C203.32 10.727 203.235 10.722 203.117 10.7387C202.965 10.7603 202.806 10.7637 202.651 10.7754C202.565 10.7437 202.479 10.7086 202.391 10.6786C202.349 10.6635 202.299 10.6452 202.254 10.6469C202.045 10.6602 201.835 10.6802 201.626 10.6986C201.416 10.7169 201.417 10.717 201.061 10.6135C201.02 10.6018 200.966 10.5885 200.922 10.5918C200.658 10.6118 200.398 10.6368 200.135 10.6569C200.033 10.6652 199.941 10.6419 199.859 10.5968C199.779 10.5518 199.684 10.5267 199.586 10.5351C199.167 10.5701 198.748 10.6035 198.329 10.6452C198.161 10.6619 198.018 10.6469 197.904 10.5868C197.771 10.5184 197.622 10.5351 197.466 10.5484C197.114 10.5818 197.111 10.5801 196.886 10.495C196.841 10.4783 196.797 10.4466 196.756 10.4483C196.391 10.4733 196.023 10.4967 195.661 10.5367C195.471 10.5584 195.369 10.5 195.242 10.4566C195.198 10.4416 195.15 10.4099 195.112 10.4133C194.849 10.4316 194.585 10.4483 194.328 10.4817C194.071 10.5151 193.973 10.3599 193.78 10.3615C193.516 10.3632 193.256 10.4016 192.996 10.425C192.786 10.4433 192.577 10.4617 192.368 10.48C192.158 10.4984 191.949 10.5134 191.739 10.5351C191.628 10.5467 191.546 10.5317 191.454 10.49C191.337 10.4349 191.197 10.3916 191.07 10.3415C190.876 10.2698 190.876 10.2698 190.642 10.2898C190.591 10.2948 190.537 10.2981 190.486 10.3031C190.102 10.3398 190.102 10.3365 189.614 10.2314C189.591 10.2264 189.534 10.2447 189.512 10.2581C189.445 10.3015 189.385 10.3482 189.325 10.3932C189.239 10.3665 189.135 10.3515 189.077 10.3132C188.916 10.2047 188.662 10.3532 188.497 10.2464C188.437 10.2064 188.332 10.1713 188.237 10.1613C188.138 10.1513 188.027 10.1747 187.926 10.1847C187.662 10.2097 187.662 10.208 187.437 10.3565C187.323 10.43 187.158 10.4166 187.009 10.4333C186.853 10.4516 186.704 10.4617 186.574 10.3932C186.457 10.3315 186.314 10.3165 186.146 10.3365C185.94 10.3615 185.727 10.3766 185.518 10.3916C185.473 10.3949 185.419 10.3866 185.375 10.3766C184.889 10.2781 184.889 10.2765 184.654 10.2981C184.55 10.3082 184.442 10.3115 184.34 10.3265C184.169 10.3532 184.039 10.3182 183.915 10.2648C183.874 10.2481 183.826 10.2164 183.785 10.2181C183.576 10.2264 183.37 10.2414 183.163 10.2564C183.005 10.2681 182.846 10.2748 182.694 10.2981C182.44 10.3365 182.316 10.228 182.142 10.178C181.881 10.1997 181.618 10.2147 181.358 10.2447C181.237 10.2581 181.158 10.2531 181.066 10.213C180.949 10.163 180.841 10.1063 180.65 10.1313C180.397 10.1647 180.13 10.1763 179.87 10.1964C179.695 10.1446 179.569 10.0395 179.318 10.0779C179.166 10.1012 179.004 10.1062 178.848 10.1196C178.639 10.1379 178.429 10.1546 178.22 10.1747C177.995 10.1947 177.998 10.1897 177.652 10.0912C177.452 10.0328 177.246 10.0979 177.043 10.1079C176.884 10.1163 176.805 10.193 176.843 10.2915C176.881 10.3899 176.795 10.4667 176.649 10.48C176.285 10.5117 175.917 10.5451 175.552 10.5734C175.507 10.5768 175.453 10.5651 175.412 10.5534C175.022 10.4483 175.022 10.45 174.847 10.465C174.587 10.49 174.321 10.5034 174.064 10.5351C173.886 10.5568 173.756 10.5217 173.642 10.465C173.553 10.4216 173.47 10.4116 173.356 10.4216C172.1 10.5334 170.843 10.6369 169.59 10.752C169.403 10.7687 169.295 10.7203 169.168 10.6752C169.124 10.6602 169.082 10.6285 169.038 10.6285C168.933 10.6285 168.828 10.6435 168.724 10.6536C168.254 10.6936 167.785 10.742 167.312 10.772C167.112 10.7854 167.058 10.8621 166.972 10.9255C166.906 10.9739 166.83 10.9939 166.712 11.0006C166.598 11.0073 166.516 10.9989 166.427 10.9556C166.312 10.8988 166.182 10.8638 166.005 10.8871C165.799 10.9138 165.589 10.9255 165.376 10.9439C165.269 10.9522 165.186 10.9823 165.151 11.0423C165.145 11.0523 165.211 11.0774 165.25 11.0924C165.376 11.1424 165.497 11.2008 165.64 11.2359C165.786 11.2709 165.944 11.2309 166.097 11.2209C166.151 11.2175 166.201 11.2075 166.252 11.2092C166.3 11.2109 166.357 11.2192 166.392 11.2342C166.557 11.3093 166.731 11.361 166.96 11.316C167.156 11.3377 167.258 11.4762 167.509 11.4394C167.661 11.4178 167.82 11.4077 167.978 11.3994C168.019 11.3977 168.064 11.4278 168.108 11.4428C168.235 11.4845 168.337 11.5512 168.527 11.5229C168.73 11.4928 168.946 11.4878 169.152 11.4645C169.266 11.4511 169.349 11.4628 169.438 11.5062C169.552 11.5613 169.682 11.603 169.86 11.5763C170.012 11.5529 170.174 11.5479 170.329 11.5329C170.532 11.5145 170.532 11.5162 170.894 11.6196C170.935 11.6313 170.989 11.6447 171.034 11.6413C171.297 11.6213 171.557 11.5963 171.82 11.5763C171.922 11.5679 172.02 11.5896 172.09 11.638C172.119 11.658 172.109 11.6914 172.119 11.7198C171.595 11.7648 171.072 11.8032 170.551 11.8583C170.355 11.88 170.266 11.8115 170.136 11.7732C170.091 11.7598 170.044 11.7315 170.002 11.7348C169.634 11.7632 169.27 11.7932 168.905 11.8299C168.79 11.8416 168.705 11.8349 168.619 11.7865C168.4 11.658 168.134 11.7281 167.886 11.7465C167.696 11.7598 167.636 11.8115 167.658 11.9217C167.686 12.0518 167.801 12.0919 168.092 12.0685C168.197 12.0602 168.302 12.0485 168.407 12.0418C168.508 12.0351 168.6 12.0568 168.683 12.1019C168.762 12.1469 168.857 12.1703 168.955 12.1636C169.165 12.1486 169.377 12.1336 169.58 12.1086C169.749 12.0885 169.888 12.1052 170.006 12.1669C170.136 12.2354 170.288 12.2203 170.44 12.2053C170.796 12.172 170.799 12.1736 171.021 12.2571C171.065 12.2737 171.11 12.3055 171.151 12.3038C171.516 12.2788 171.884 12.2571 172.242 12.217C172.43 12.197 172.538 12.2504 172.661 12.2938C172.706 12.3088 172.75 12.3422 172.791 12.3388C173.055 12.3205 173.318 12.3021 173.575 12.2704C173.696 12.2554 173.769 12.2654 173.867 12.3054C174.102 12.4039 174.108 12.4005 174.441 12.3688C174.543 12.3588 174.654 12.3405 174.749 12.3538C174.844 12.3672 174.92 12.4156 175.009 12.4456C175.05 12.459 175.101 12.4773 175.146 12.474C175.355 12.4606 175.564 12.4406 175.774 12.4222C175.97 12.4039 175.971 12.4056 176.339 12.509C176.488 12.5524 176.643 12.5157 176.792 12.5023C176.954 12.4873 177.1 12.4873 177.224 12.5524C177.348 12.6175 177.497 12.6141 177.655 12.6008C177.804 12.5874 177.957 12.5507 178.109 12.5958C178.458 12.6992 178.458 12.7009 178.674 12.6809C178.988 12.6525 179.299 12.6258 179.616 12.6008C179.657 12.5974 179.711 12.6175 179.753 12.6308C179.841 12.6609 179.918 12.7109 180.013 12.7226C180.108 12.7359 180.219 12.7159 180.32 12.7059C180.647 12.6742 180.669 12.6625 180.888 12.7726C181.072 12.8628 181.301 12.7326 181.472 12.8361C181.571 12.8945 181.704 12.9412 181.888 12.9128C182.04 12.8894 182.199 12.8828 182.357 12.8694C182.608 12.8477 182.608 12.8494 182.925 12.9495C182.967 12.9629 183.02 12.9795 183.062 12.9762C183.271 12.9629 183.484 12.9512 183.687 12.9212C183.925 12.8861 184.077 12.9495 184.255 13.0113C184.394 13.0597 184.559 13.0196 184.708 13.0029C184.87 12.9862 185.016 12.9912 185.137 13.0563C185.264 13.123 185.413 13.1147 185.571 13.1014C185.721 13.0897 185.873 13.0513 186.025 13.098C186.352 13.2015 186.352 13.2015 186.59 13.1814C186.799 13.1631 187.009 13.1431 187.218 13.1297C187.259 13.1264 187.31 13.1481 187.351 13.1631C187.44 13.1931 187.516 13.2432 187.612 13.2549C187.707 13.2666 187.818 13.2449 187.923 13.2365C188.027 13.2282 188.138 13.2031 188.233 13.2132C188.329 13.2232 188.417 13.2649 188.494 13.3016C188.582 13.345 188.665 13.35 188.786 13.3333C188.938 13.3116 189.096 13.3066 189.252 13.2949C189.338 13.3266 189.426 13.3583 189.509 13.3934C189.595 13.4301 189.687 13.4267 189.804 13.415C190.194 13.375 190.197 13.38 190.524 13.4835C190.673 13.5302 190.829 13.4918 190.978 13.4801C191.137 13.4668 191.286 13.4601 191.409 13.5269C191.53 13.5903 191.679 13.5986 191.838 13.5786C191.939 13.5652 192.047 13.5569 192.152 13.5519C192.199 13.5502 192.257 13.5569 192.291 13.5702C192.46 13.6403 192.625 13.7037 192.856 13.6587C193.059 13.672 193.161 13.8088 193.405 13.7822C193.611 13.7588 193.827 13.7538 194.03 13.7237C194.217 13.697 194.351 13.7438 194.446 13.8022C194.617 13.9056 194.858 13.7655 195.03 13.8673C195.128 13.9257 195.255 13.9724 195.445 13.9473C195.655 13.9206 195.721 13.9557 195.782 14.0608C195.816 14.1209 195.81 14.1693 195.747 14.216C195.683 14.2644 195.613 14.256 195.512 14.201C195.395 14.1392 195.255 14.1275 195.087 14.1409C194.922 14.1542 194.82 14.0675 194.684 14.0341C194.547 13.9991 194.386 14.0575 194.243 14.0124C193.907 13.9073 193.906 13.9073 193.678 13.9273C193.523 13.9407 193.361 13.9473 193.208 13.9707C193.028 13.9991 192.91 13.9473 192.786 13.9006C192.742 13.8839 192.698 13.8522 192.66 13.8539C192.295 13.8789 191.927 13.9023 191.565 13.944C191.375 13.9657 191.273 13.9056 191.146 13.8639C191.102 13.8489 191.054 13.8189 191.016 13.8222C190.702 13.8456 190.391 13.8756 190.077 13.904C190.017 13.949 189.95 13.9924 189.893 14.0408C189.833 14.0908 189.75 14.1125 189.63 14.1109C189.43 14.1109 189.233 14.1809 189.033 14.0925C188.827 14.0024 188.811 14.0074 188.611 14.0291C188.357 14.0575 188.088 14.0508 187.85 14.1159C187.808 14.1275 187.764 14.1592 187.764 14.1826C187.761 14.1976 187.827 14.2193 187.869 14.2327C188.008 14.2727 188.17 14.2143 188.31 14.256C188.402 14.2827 188.478 14.3228 188.57 14.3511C188.608 14.3628 188.665 14.3611 188.716 14.3595C188.77 14.3578 188.82 14.3461 188.871 14.3478C188.919 14.3495 188.97 14.3595 189.008 14.3745C189.182 14.4379 189.366 14.4963 189.522 14.5714C189.674 14.6448 189.817 14.5947 189.969 14.5914C190.578 14.7082 190.578 14.7099 190.988 14.6732C191.089 14.6648 191.194 14.6548 191.298 14.6565C191.343 14.6565 191.384 14.6865 191.428 14.7032C191.555 14.7533 191.676 14.7983 191.854 14.7716C192.006 14.7483 192.168 14.7432 192.323 14.7282C192.533 14.7099 192.533 14.7099 192.888 14.815C192.977 14.8417 193.072 14.8384 193.186 14.825C193.285 14.8133 193.386 14.8384 193.456 14.8868C193.484 14.9068 193.475 14.9401 193.484 14.9685C193.17 14.9952 192.853 15.0136 192.549 15.0536C192.352 15.0786 192.263 15.0069 192.133 14.9685C192.088 14.9552 192.041 14.9268 192 14.9301C191.689 14.9552 191.378 14.9835 191.067 15.0169C191.029 15.0202 190.981 15.0586 190.978 15.082C190.972 15.1253 191.051 15.1671 191.165 15.1654C191.317 15.1637 191.467 15.1354 191.603 15.2038C191.717 15.2638 191.86 15.2906 192.028 15.2639C192.13 15.2488 192.238 15.2488 192.339 15.2355C192.609 15.1954 192.853 15.2038 193.056 15.3172C193.212 15.3473 193.364 15.3189 193.513 15.3039C193.624 15.2922 193.732 15.2805 193.811 15.3122C193.979 15.379 194.144 15.4457 194.376 15.4007C194.627 15.4474 194.817 15.5458 195.026 15.6259C195.125 15.6643 195.201 15.686 195.315 15.661C195.363 15.651 195.42 15.651 195.471 15.6459C195.575 15.6376 195.686 15.6126 195.782 15.6226C195.877 15.6343 195.956 15.6827 196.042 15.7127C196.083 15.7277 196.131 15.7527 196.172 15.7511C196.33 15.7427 196.486 15.726 196.641 15.7127C196.797 15.701 196.952 15.6893 197.108 15.6777C197.238 15.721 197.371 15.7644 197.501 15.8078C197.711 15.7895 197.92 15.7711 198.126 15.7544C198.358 15.7344 198.358 15.7361 198.691 15.8395C198.84 15.8862 198.999 15.8562 199.142 15.8345C199.38 15.7995 199.538 15.8629 199.706 15.9296C199.741 15.943 199.805 15.9513 199.846 15.9446C200.011 15.9213 200.154 15.9396 200.274 16.0014C200.36 16.0447 200.446 16.0648 200.55 16.0564C200.915 16.0247 201.28 15.9913 201.645 15.963C201.689 15.9596 201.74 15.9747 201.781 15.988C202.105 16.0898 202.108 16.0948 202.346 16.0681C202.559 16.0447 202.755 16.0347 202.924 16.1265C202.959 16.1465 203.012 16.1749 203.05 16.1732C203.311 16.1565 203.574 16.1382 203.831 16.1098C203.948 16.0965 204.031 16.1015 204.123 16.1399C204.24 16.1883 204.345 16.2467 204.539 16.225C205.075 16.1632 205.078 16.1732 205.713 16.2884C205.757 16.2967 205.817 16.2834 205.868 16.2767C205.976 16.26 206.055 16.2834 206.15 16.3217C206.363 16.4085 206.369 16.4035 206.572 16.3851C206.728 16.3701 206.89 16.3668 207.042 16.3418C207.277 16.305 207.432 16.3701 207.607 16.4319C207.746 16.4803 207.908 16.4402 208.057 16.4252C208.219 16.4085 208.365 16.4135 208.486 16.4769C208.568 16.5203 208.657 16.5437 208.762 16.5353C209.126 16.5053 209.491 16.4719 209.856 16.4419C209.901 16.4385 209.955 16.4519 209.996 16.4636C210.358 16.567 210.358 16.572 210.716 16.5336C210.83 16.522 210.925 16.5186 211.011 16.5537C211.094 16.587 211.182 16.6187 211.268 16.6504C211.424 16.6388 211.582 16.6354 211.735 16.6154C211.852 16.6004 211.934 16.6071 212.026 16.6421C212.147 16.6872 212.249 16.7656 212.439 16.7272C212.537 16.7088 212.651 16.7139 212.75 16.6972C212.867 16.6755 212.947 16.6888 213.039 16.7322C213.153 16.7839 213.27 16.8373 213.454 16.8106C213.657 16.7806 213.873 16.7756 214.079 16.7522C214.193 16.7389 214.273 16.7522 214.365 16.7956C214.479 16.8507 214.609 16.8857 214.787 16.864C215.149 16.8223 215.152 16.8306 215.504 16.9358C215.593 16.9625 215.688 16.9591 215.802 16.9458C215.9 16.9341 216.002 16.9591 216.072 17.0075C216.138 17.0609 216.132 17.0943 216.138 17.1226ZM187.865 2.07367C187.761 2.08202 187.656 2.09203 187.504 1.94686C187.494 1.92183 187.501 1.8918 187.478 1.87011C187.428 1.82506 187.348 1.79336 187.253 1.78835C187.082 1.78168 186.875 1.8384 186.879 1.88178C186.882 1.91849 186.936 1.95019 187.04 1.98022C187.085 1.9919 187.12 2.01193 187.161 2.02528C187.282 2.06365 187.377 2.13875 187.551 2.10038C187.535 2.04865 187.52 1.99692 187.551 2.10038C187.535 2.16378 187.583 2.20884 187.697 2.22719C187.729 2.2322 187.777 2.22885 187.802 2.21884C187.9 2.18213 187.916 2.13208 187.843 2.00026C187.831 2.02196 187.84 2.06032 187.869 2.07033C187.897 2.08034 187.967 2.07201 188.002 2.06033C188.091 2.02863 188.135 1.98691 188.113 1.95187C188.1 1.93351 188.04 1.91015 188.002 1.91015C187.935 1.91015 187.875 1.94686 187.865 2.07367ZM213.521 21.4243C213.289 21.456 213.023 21.4443 212.791 21.5094C212.75 21.521 212.709 21.5511 212.705 21.5744C212.702 21.5895 212.766 21.6112 212.804 21.6228C212.889 21.6495 212.985 21.6412 213.096 21.6328C213.264 21.6212 213.362 21.6979 213.492 21.7363C213.534 21.748 213.587 21.7563 213.632 21.753C213.889 21.7329 214.143 21.7113 214.4 21.6879C214.444 21.6829 214.492 21.6712 214.53 21.6562C214.657 21.6078 214.644 21.5761 214.52 21.5394C214.384 21.4994 214.276 21.4326 214.136 21.4009C213.936 21.3558 213.733 21.4159 213.521 21.4243ZM195.502 22.6423C195.347 22.6557 195.195 22.669 195.039 22.6824C194.988 22.6874 194.934 22.6891 194.887 22.6957C194.788 22.7074 194.716 22.7424 194.668 22.7975C194.741 22.8409 194.83 22.8659 194.928 22.8609C195.084 22.8509 195.236 22.8292 195.391 22.8242C195.559 22.8175 195.658 22.8926 195.788 22.931C195.829 22.9427 195.88 22.9443 195.928 22.946C196.162 22.9527 196.305 22.8659 196.261 22.7441C196.229 22.649 196.108 22.5923 195.962 22.604C195.81 22.6156 195.655 22.629 195.502 22.6423ZM214.606 18.9581C214.644 18.9297 214.685 18.9097 214.704 18.8847C214.761 18.7996 214.739 18.7362 214.634 18.6694C214.508 18.5877 214.352 18.6427 214.209 18.6511C214.174 18.6527 214.136 18.6878 214.117 18.7095C214.105 18.7245 214.105 18.7562 214.124 18.7645C214.279 18.8313 214.444 18.893 214.606 18.9581ZM187.082 14.0291C186.929 14.0424 186.774 14.0525 186.622 14.0708C186.584 14.0758 186.549 14.1075 186.527 14.1292C186.485 14.1693 186.53 14.2243 186.66 14.2293C186.809 14.236 186.964 14.2076 187.12 14.1943C187.316 14.1776 187.434 14.1159 187.361 14.0625C187.291 14.0107 187.196 14.0007 187.082 14.0291ZM20.0678 10.4633C20.1693 10.455 20.274 10.4483 20.3755 10.4366C20.4707 10.4249 20.5437 10.3882 20.5913 10.3332C20.512 10.2898 20.4231 10.2664 20.3248 10.2714C20.1693 10.2815 20.017 10.2948 19.8647 10.3115C19.7696 10.3215 19.6776 10.3582 19.6554 10.4149C19.6331 10.4583 19.8457 10.4834 20.0678 10.4633ZM173.664 10.2064C173.705 10.2214 173.746 10.2514 173.788 10.2514C173.889 10.2514 173.994 10.2414 174.089 10.2247C174.13 10.218 174.162 10.188 174.181 10.1646C174.194 10.1496 174.191 10.1229 174.172 10.1096C174.08 10.0295 173.711 10.0579 173.651 10.1496C173.645 10.1663 173.661 10.188 173.664 10.2064ZM163.654 1.06918C163.663 1.09588 163.666 1.12257 163.679 1.14927C163.704 1.19933 163.774 1.23604 163.876 1.26107C163.955 1.21936 163.996 1.17264 163.993 1.12259C163.99 1.09589 163.98 1.06917 163.968 1.04248C163.942 0.99242 163.873 0.955724 163.771 0.930695C163.692 0.970741 163.654 1.01745 163.654 1.06918ZM221.938 22.9327C221.91 22.9544 221.881 22.9761 221.849 22.9961C221.935 23.0445 222.014 23.0595 222.075 23.0328C222.113 23.0161 222.135 22.9911 222.164 22.9694C222.078 22.921 222.002 22.9076 221.938 22.9327ZM219.965 23.1596C220.006 23.1746 220.044 23.1946 220.089 23.2047C220.162 23.2213 220.228 23.193 220.279 23.1329C220.238 23.1179 220.2 23.0979 220.155 23.0878C220.082 23.0712 220.016 23.0995 219.965 23.1596ZM221.215 22.8543C221.193 22.8943 221.237 22.9277 221.355 22.956C221.383 22.9343 221.421 22.9143 221.44 22.891C221.472 22.8526 221.418 22.8175 221.304 22.7908C221.272 22.8109 221.243 22.8326 221.215 22.8543ZM214.517 21.0555C214.495 21.0956 214.539 21.1289 214.657 21.1573C214.685 21.1356 214.723 21.1156 214.742 21.0922C214.774 21.0538 214.72 21.0188 214.606 20.9921C214.574 21.0121 214.546 21.0338 214.517 21.0555ZM205.392 9.24859C205.364 9.27029 205.335 9.29198 205.303 9.312C205.389 9.36039 205.468 9.3754 205.528 9.34871C205.567 9.33202 205.589 9.30699 205.617 9.2853C205.532 9.23691 205.456 9.22357 205.392 9.24859ZM196.651 2.98471C196.727 2.99639 196.791 2.97304 196.845 2.91131C196.803 2.89629 196.765 2.87626 196.721 2.86625C196.648 2.84957 196.581 2.87794 196.53 2.93801C196.572 2.9547 196.613 2.9697 196.651 2.98471ZM192.009 2.5926C191.981 2.61429 191.952 2.63598 191.92 2.65601C192.006 2.7044 192.085 2.71941 192.146 2.69271C192.184 2.67603 192.206 2.651 192.234 2.6293C192.149 2.58092 192.073 2.56924 192.009 2.5926ZM160.532 1.06751C160.503 1.0892 160.475 1.11089 160.443 1.13092C160.528 1.17931 160.608 1.19432 160.668 1.16762C160.706 1.15094 160.728 1.12591 160.757 1.10421C160.671 1.05583 160.595 1.04415 160.532 1.06751ZM3.79755 14.6431C3.7563 14.6281 3.71509 14.6131 3.67702 14.5964C3.585 14.6415 3.55646 14.6832 3.60722 14.7149C3.63895 14.7349 3.68651 14.7466 3.72775 14.7616C3.82294 14.7166 3.84514 14.6765 3.79755 14.6431Z" fill="#FFE492"/>
<path id="Vector_2" d="M22.2 8.75106C21.8351 8.78276 21.4735 8.8228 21.1086 8.84282C20.915 8.85283 20.8453 8.92459 20.766 8.99133C20.7025 9.04472 20.6295 9.06141 20.5121 9.07142C19.5222 9.15318 18.5354 9.23995 17.5487 9.32505C17.4249 9.30335 17.3647 9.26832 17.3932 9.2266C17.4091 9.20158 17.4472 9.16653 17.4852 9.1632C18.1611 9.10146 18.8337 9.03805 19.5126 8.98966C19.7062 8.97631 19.7602 8.90289 19.8585 8.84282C19.8902 8.8228 19.9156 8.79277 19.9569 8.78108C19.9981 8.76774 20.0584 8.76941 20.1124 8.76607C21.2038 8.67096 22.2953 8.57753 23.3867 8.48242C23.5105 8.50411 23.5707 8.53915 23.5422 8.58086C23.5263 8.60589 23.4882 8.64093 23.4502 8.64427C23.0313 8.67931 22.6157 8.71435 22.2 8.75106Z" fill="#FFE492"/>
<path id="Vector_3" d="M221.979 17.6384C221.814 17.6585 221.605 17.6869 221.433 17.5899C221.351 17.5431 221.262 17.5281 221.154 17.5381C220.999 17.5548 220.84 17.5682 220.681 17.5782C220.64 17.5799 220.586 17.5615 220.545 17.5465C220.456 17.5164 220.38 17.4662 220.285 17.4528C220.189 17.4395 220.075 17.4762 219.977 17.4679C219.847 17.4562 219.793 17.411 219.828 17.3692C219.847 17.3458 219.885 17.3124 219.926 17.3074C220.513 17.2455 220.516 17.2455 220.681 17.3057C220.808 17.3525 220.926 17.4043 221.106 17.3759C221.259 17.3525 221.421 17.3475 221.576 17.3324C221.792 17.3124 221.792 17.314 222.141 17.4194C222.23 17.4461 222.325 17.4445 222.439 17.4294C222.537 17.4177 222.633 17.4445 222.712 17.4896C222.661 17.5465 222.588 17.5833 222.49 17.5933C222.331 17.61 222.176 17.6217 221.979 17.6384Z" fill="#FFE492"/>
<path id="Vector_4" d="M216.138 17.122C216.538 17.0869 216.941 17.0568 217.341 17.0167C217.506 16.9999 217.636 17.0183 217.75 17.0752C217.874 17.1371 218.013 17.132 218.166 17.1203C218.261 17.1137 218.353 17.1404 218.416 17.1872C218.442 17.2056 218.435 17.2391 218.445 17.2658C218.096 17.2959 217.744 17.3277 217.392 17.3544C217.35 17.3578 217.299 17.3411 217.261 17.3277C217.176 17.2993 217.103 17.2491 217.011 17.2391C216.814 17.2157 216.617 17.2608 216.417 17.2691C216.322 17.2725 216.23 17.2474 216.167 17.2023C216.141 17.1805 216.148 17.1488 216.138 17.122Z" fill="#FFE492"/>
<path id="Vector_5" d="M71.6629 2.77567C72.0786 2.73888 72.4942 2.70378 72.9098 2.66699C73.0336 2.6904 73.0907 2.72384 73.0653 2.76564C73.0494 2.79073 73.0114 2.82584 72.9733 2.82919C72.142 2.90443 71.3108 2.97633 70.4827 3.04823C70.3589 3.02482 70.3018 2.99138 70.3272 2.94958C70.3431 2.9245 70.3812 2.88938 70.4192 2.88604C70.8317 2.84758 71.2473 2.81245 71.6629 2.77567Z" fill="#FFE492"/>
<path id="Vector_6" d="M7.6178 12.0498C7.43061 12.0531 7.23393 12.115 7.02453 12.0682C6.98328 12.0598 6.92615 12.0331 6.92933 12.018C6.93567 11.9929 6.97375 11.9612 7.015 11.9511C7.19585 11.9093 7.42114 11.9043 7.51315 11.7873C7.55757 11.7271 7.64006 11.707 7.75111 11.6953C7.86851 11.6819 7.95098 11.6869 8.04299 11.722C8.16356 11.7672 8.2651 11.8508 8.45547 11.8073C8.46499 11.8341 8.48714 11.8642 8.47762 11.8893C8.46811 11.9143 8.42693 11.9377 8.38885 11.9561C8.35395 11.9729 8.30631 11.9879 8.26189 11.9929C8.05249 12.013 7.84307 12.0297 7.6178 12.0498Z" fill="#FFE492"/>
<path id="Vector_7" d="M172.63 11.715C172.786 11.7017 172.947 11.695 173.1 11.6716C173.22 11.6532 173.296 11.6649 173.392 11.705C173.553 11.7752 173.563 11.7686 173.96 11.7786C174.004 11.7803 174.058 11.8053 174.083 11.8271C174.099 11.8388 174.077 11.8706 174.058 11.8873C174.029 11.909 173.988 11.9374 173.95 11.9374C173.699 11.9425 173.446 12.0411 173.201 11.9274C173.078 11.8706 172.941 11.8438 172.773 11.8689C172.671 11.8839 172.564 11.8906 172.459 11.8973C172.357 11.904 172.253 11.8856 172.189 11.8354C172.097 11.7619 172.151 11.7334 172.316 11.7385C172.421 11.7418 172.525 11.7234 172.63 11.715Z" fill="#FFE492"/>
<path id="Vector_8" d="M230.13 23.2146C230.33 23.1979 230.53 23.1778 230.733 23.1645C230.775 23.1611 230.825 23.1795 230.863 23.1912C231.016 23.2414 230.993 23.3266 231 23.4019C231.003 23.4805 230.651 23.544 230.502 23.4905C230.337 23.4303 230.188 23.3618 229.959 23.3986C229.87 23.4119 229.766 23.3818 229.708 23.3334C229.623 23.2631 229.67 23.2347 229.832 23.2397C229.927 23.243 230.029 23.2246 230.13 23.2146Z" fill="#FFE492"/>
<path id="Vector_9" d="M129.406 0.501641C129.612 0.483247 129.818 0.454834 130.024 0.453162C130.145 0.45149 130.205 0.506661 130.177 0.546793C130.161 0.571875 130.123 0.606992 130.085 0.610336C129.672 0.650468 129.26 0.683917 128.847 0.720705C128.727 0.697295 128.666 0.662185 128.695 0.622053C128.711 0.59697 128.749 0.563526 128.787 0.55851C128.993 0.535099 129.199 0.520035 129.406 0.501641Z" fill="#FFE492"/>
<path id="Vector_10" d="M226.174 17.7808C226.374 17.7641 226.577 17.739 226.777 17.7307C226.881 17.7273 226.964 17.7658 226.977 17.8093C226.983 17.8293 226.932 17.8644 226.891 17.8728C226.605 17.9297 226.298 17.9364 225.999 17.9648C225.904 17.9731 225.803 17.9464 225.746 17.8996C225.66 17.8277 225.708 17.8009 225.869 17.8059C225.971 17.8076 226.072 17.7892 226.174 17.7808Z" fill="#FFE492"/>
<path id="Vector_11" d="M177.869 11.9397C177.971 11.9314 178.076 11.9096 178.174 11.9163C178.279 11.9247 178.345 11.9732 178.377 12.0216C178.412 12.0768 178.409 12.1287 178.377 12.1755C178.326 12.2558 178.275 12.2524 178.158 12.1989C177.977 12.1153 177.965 12.1253 177.606 12.1287C177.565 12.1287 177.514 12.1036 177.482 12.0818C177.435 12.0484 177.46 11.9966 177.571 11.9665C177.654 11.9447 177.768 11.9481 177.869 11.9397Z" fill="#FFE492"/>
<path id="Vector_12" d="M218.743 17.2363C218.892 17.223 219.041 17.2012 219.191 17.2012C219.295 17.1996 219.378 17.238 219.387 17.2798C219.39 17.2999 219.343 17.3333 219.305 17.3434C219.124 17.3885 218.921 17.3918 218.724 17.4069C218.632 17.4136 218.531 17.3868 218.474 17.34C218.388 17.2698 218.439 17.238 218.594 17.248C218.642 17.2514 218.692 17.2413 218.743 17.2363Z" fill="#FFE492"/>
<path id="Vector_13" d="M195.274 15.1914C195.052 15.2115 194.842 15.1864 194.858 15.1429C194.88 15.0861 194.972 15.0493 195.068 15.0392C195.22 15.0225 195.372 15.0092 195.528 14.9991C195.626 14.9924 195.715 15.0175 195.794 15.061C195.747 15.1145 195.674 15.153 195.579 15.1647C195.48 15.1764 195.375 15.1831 195.274 15.1914Z" fill="#FFE492"/>
<path id="Vector_14" d="M193.816 14.9761C193.966 14.9627 194.115 14.941 194.264 14.941C194.369 14.9393 194.451 14.9778 194.461 15.0196C194.464 15.0396 194.416 15.0731 194.378 15.0831C194.197 15.1282 193.994 15.1316 193.797 15.1466C193.705 15.1533 193.604 15.1266 193.547 15.0798C193.461 15.0095 193.512 14.9778 193.667 14.9878C193.715 14.9911 193.766 14.9811 193.816 14.9761Z" fill="#FFE492"/>
<path id="Vector_15" d="M176.075 11.926C176.224 11.9126 176.373 11.8909 176.522 11.8892C176.627 11.8875 176.709 11.926 176.719 11.9678C176.722 11.9879 176.674 12.0197 176.636 12.0314C176.456 12.0765 176.252 12.0799 176.056 12.0949C175.964 12.1016 175.862 12.0748 175.805 12.028C175.719 11.9578 175.77 11.926 175.926 11.936C175.973 11.9394 176.024 11.9294 176.075 11.926Z" fill="#FFE492"/>
<path id="Vector_16" d="M175.239 11.8274C175.397 11.814 175.448 11.8057 175.499 11.8057C175.594 11.8057 175.693 11.8257 175.75 11.8742C175.835 11.9445 175.785 11.9645 175.629 11.9679C175.429 11.9712 175.232 12.0063 175.033 12.013C174.928 12.0164 174.845 11.9762 174.839 11.9344C174.836 11.9144 174.883 11.8792 174.922 11.8726C175.055 11.8475 175.201 11.8324 175.239 11.8274Z" fill="#FFE492"/>
<path id="Vector_17" d="M192.526 2.00969C192.425 2.01805 192.317 2.04146 192.222 2.0331C192.095 2.02139 192.044 1.97625 192.076 1.93445C192.095 1.91104 192.13 1.87759 192.168 1.87258C192.371 1.84917 192.577 1.8341 192.78 1.81738C192.901 1.84247 192.954 1.87758 192.923 1.91938C192.904 1.94279 192.869 1.97456 192.831 1.98125C192.732 1.99797 192.628 2.00133 192.526 2.00969Z" fill="#FFE492"/>
<path id="Vector_18" d="M69.3908 2.97177C69.4892 2.9701 69.5779 2.99183 69.6541 3.03364C69.6065 3.08715 69.5367 3.12226 69.4415 3.13731C69.3939 3.144 69.34 3.14901 69.2892 3.15068C69.1909 3.15403 69.102 3.13062 69.0259 3.08881C69.0735 3.0353 69.1464 3.00019 69.2384 2.98514C69.286 2.97845 69.34 2.97679 69.3908 2.97177Z" fill="#FFE492"/>
<path id="Vector_19" d="M225.093 17.7768C225.09 17.7283 225.283 17.6732 225.458 17.6748C225.55 17.6765 225.645 17.6999 225.699 17.7451C225.781 17.8136 225.734 17.8404 225.578 17.8354C225.483 17.832 225.381 17.8604 225.286 17.8554C225.178 17.8538 225.115 17.817 225.093 17.7768Z" fill="#FFE492"/>
<path id="Vector_20" d="M178.791 12.1401C178.788 12.1217 178.772 12.1 178.781 12.0833C178.842 11.9913 179.207 11.9629 179.302 12.0431C179.318 12.0582 179.324 12.0833 179.311 12.0983C179.292 12.1217 179.257 12.1518 179.219 12.1585C179.121 12.1752 179.019 12.1836 178.918 12.1853C178.873 12.1853 178.832 12.1568 178.791 12.1401Z" fill="#FFE492"/>
<path id="Vector_21" d="M8.7449 11.7824C8.37051 11.8176 8.36417 11.8142 8.4308 11.7306C8.49108 11.6554 8.60215 11.6102 8.76396 11.6102C8.81155 11.6102 8.8623 11.6069 8.90355 11.6136C8.94796 11.6219 9.01146 11.6386 9.02098 11.6587C9.04001 11.6971 8.98603 11.739 8.89084 11.7674C8.8496 11.7808 8.79567 11.7774 8.7449 11.7824Z" fill="#FFE492"/>
<path id="Vector_22" d="M74.0738 2.74061C73.9628 2.76904 73.8676 2.75901 73.7978 2.7055C73.728 2.65199 73.8391 2.58844 74.0326 2.57339C74.0834 2.57005 74.1373 2.55668 74.1849 2.56337C74.2325 2.56839 74.2801 2.58844 74.3087 2.6085C74.3595 2.64195 74.3277 2.68711 74.2262 2.72557C74.1849 2.74062 74.1246 2.73727 74.0738 2.74061Z" fill="#FFE492"/>
<path id="Vector_23" d="M224.431 17.6514C224.46 17.6297 224.489 17.608 224.52 17.5879C224.638 17.6163 224.688 17.6498 224.657 17.6882C224.638 17.7116 224.6 17.7317 224.571 17.7534C224.454 17.725 224.406 17.6899 224.431 17.6514Z" fill="#FFE492"/>
<path id="Vector_24" d="M13.7739 30.7783C13.7739 30.7582 13.8183 30.7265 13.8532 30.7198C13.9199 30.7081 14.0023 30.7315 14.0594 30.7783C14.1388 30.8452 14.0912 30.8803 13.9453 30.8619C13.8437 30.8485 13.7739 30.8151 13.7739 30.7783Z" fill="#FFE492"/>
<path id="Vector_25" d="M180.08 10.5893C180.122 10.6044 180.163 10.6194 180.201 10.6362C180.147 10.698 180.08 10.7248 180.011 10.7081C179.966 10.698 179.928 10.678 179.887 10.6629C179.941 10.601 180.004 10.5776 180.08 10.5893Z" fill="#FFE492"/>
<path id="Vector_26" d="M178.988 10.5114C179.051 10.4863 179.127 10.4997 179.216 10.5482C179.187 10.5699 179.162 10.595 179.127 10.6118C179.067 10.6385 178.988 10.6251 178.902 10.5749C178.927 10.5549 178.956 10.5331 178.988 10.5114Z" fill="#FFE492"/>
<path id="Vector_27" d="M178.144 10.586C178.185 10.6011 178.226 10.6161 178.264 10.6328C178.21 10.6947 178.147 10.7215 178.074 10.7047C178.029 10.6947 177.991 10.6746 177.95 10.6596C178.004 10.5977 178.068 10.5726 178.144 10.586Z" fill="#FFE492"/>
<path id="Vector_28" d="M177.522 10.496C177.57 10.5295 177.544 10.5696 177.452 10.6148C177.411 10.5997 177.364 10.588 177.332 10.568C177.281 10.5362 177.306 10.4944 177.402 10.4492C177.44 10.4659 177.481 10.481 177.522 10.496Z" fill="#FFE492"/>
</g>
</svg>
